<?xml version="1.0" standalone="no"?><!DOCTYPE svg PUBLIC "-//W3C//DTD SVG 1.1//EN" "http://www.w3.org/Graphics/SVG/1.1/DTD/svg11.dtd" ><svg xmlns="http://www.w3.org/2000/svg"><metadata></metadata><defs><font id="2.002;NONE;Figtree-Black" horiz-adv-x="1100"><font-face font-family="Figtree Black" font-weight="900" font-stretch="normal" units-per-em="1000" panose-1="0 0 0 0 0 0 0 0 0 0" ascent="950" descent="-250" x-height="0" bbox="-206 -220 1100 979" underline-thickness="50" underline-position="-100" unicode-range="U+000d-2265" /><missing-glyph horiz-adv-x="749" d="M7 0 l268 700 l199 0 l268 -700 l-196 0 l-41 112 l-261 0 l-41 -112 l-196 0 ZM304 275 l141 0 l-70 194 l-71 -194 Z" /><glyph glyph-name="Aacute" unicode="Á" d="M7 0 l268 700 l199 0 l268 -700 l-196 0 l-41 112 l-261 0 l-41 -112 l-196 0 ZM304 275 l141 0 l-70 194 l-71 -194 ZM276 751 l110 139 l190 0 l-130 -139 l-170 0 Z" /><glyph glyph-name="AE" unicode="Æ" d="M7 0 l368 700 l601 0 l0 -170 l-279 0 l0 -97 l225 0 l0 -165 l-225 0 l0 -98 l286 0 l0 -170 l-476 0 l0 112 l-234 0 l-56 -112 l-210 0 ZM355 275 l152 0 l0 255 l-25 0 l-127 -255 Z" /><glyph glyph-name="B" unicode="B" d="M60 0 l0 700 l252 0 q73 0 129 -22 q56 -22 88 -68 q32 -46 32 -117 q0 -32 -18 -63 q-18 -31 -50 -57 q46 -25 71 -65.5 q25 -40.5 25 -99.5 q0 -67 -31 -113.5 q-31 -46.5 -85.5 -70.5 q-54.5 -24 -125.5 -24 l-287 0 ZM240 163 l85 0 q33 0 52.5 18 q19.5 18 19.5 46 q0 28 -19.5 44.5 q-19.5 16.5 -52.5 16.5 l-85 0 l0 -125 ZM240 435 l59 0 q32 0 52 16 q20 16 20 45 q0 29 -20 45 q-20 16 -52 16 l-59 0 l0 -122 Z" /><glyph glyph-name="C" unicode="C" d="M383 -12 q-105 0 -185.5 46.5 q-80.5 46.5 -126.5 128 q-46 81.5 -46 187.5 q0 106 46 187.5 q46 81.5 126.5 128 q80.5 46.5 185.5 46.5 q81 0 146 -28 q65 -28 112 -78 q47 -50 72 -116 l-176 -56 q-14 33 -36 57.5 q-22 24.5 -51.5 37.5 q-29.5 13 -66.5 13 q-49 0 -87 -24.5 q-38 -24.5 -59.5 -67.5 q-21.5 -43 -21.5 -100 q0 -56 22 -99.5 q22 -43.5 60.5 -68 q38.5 -24.5 88.5 -24.5 q39 0 67.5 13.5 q28.5 13.5 49 38 q20.5 24.5 35.5 57.5 l176 -56 q-24 -66 -71 -116.5 q-47 -50.5 -113 -78.5 q-66 -28 -147 -28 Z" /><glyph glyph-name="D" unicode="D" d="M60 0 l0 700 l234 0 q115 0 203.5 -45 q88.5 -45 138.5 -123.5 q50 -78.5 50 -181.5 q0 -102 -50 -181 q-50 -79 -138.5 -124 q-88.5 -45 -203.5 -45 l-234 0 ZM245 175 l49 0 q44 0 81 13 q37 13 64 36 q27 23 42 55 q15 32 15 71 q0 39 -15 71 q-15 32 -42 55 q-27 23 -64 36 q-37 13 -81 13 l-49 0 l0 -350 Z" /><glyph glyph-name="Eth" unicode="Ð" d="M40 287 l0 127 l338 0 l0 -127 l-338 0 ZM90 0 l0 700 l234 0 q115 0 203.5 -45 q88.5 -45 138.5 -123.5 q50 -78.5 50 -181.5 q0 -102 -50 -181 q-50 -79 -138.5 -124 q-88.5 -45 -203.5 -45 l-234 0 ZM275 175 l49 0 q44 0 81 13 q37 13 64 36 q27 23 42 55 q15 32 15 71 q0 39 -15 71 q-15 32 -42 55 q-27 23 -64 36 q-37 13 -81 13 l-49 0 l0 -350 Z" /><glyph glyph-name="E" unicode="E" d="M60 0 l0 700 l469 0 l0 -170 l-284 0 l0 -97 l230 0 l0 -165 l-230 0 l0 -98 l291 0 l0 -170 l-476 0 Z" /><glyph glyph-name="Eacute" unicode="É" d="M60 0 l0 700 l469 0 l0 -170 l-284 0 l0 -97 l230 0 l0 -165 l-230 0 l0 -98 l291 0 l0 -170 l-476 0 ZM189 751 l110 139 l190 0 l-130 -139 l-170 0 Z" /><glyph glyph-name="F" unicode="F" d="M60 0 l0 700 l479 0 l0 -170 l-294 0 l0 -102 l230 0 l0 -170 l-230 0 l0 -258 l-185 0 Z" /><glyph glyph-name="G" unicode="G" d="M393 -12 q-108 0 -191 46.5 q-83 46.5 -130 128 q-47 81.5 -47 187.5 q0 106 47 187.5 q47 81.5 130 128 q83 46.5 191 46.5 q71 0 125.5 -20 q54.5 -20 94.5 -54.5 q40 -34.5 68 -79.5 l-154 -91 q-14 22 -35.5 39 q-21.5 17 -47 26.5 q-25.5 9.5 -51.5 9.5 q-52 0 -92 -24.5 q-40 -24.5 -63 -67.5 q-23 -43 -23 -100 q0 -56 22 -100 q22 -44 63.5 -69 q41.5 -25 97.5 -25 q36 0 65 12 q29 12 47.5 33.5 q18.5 21.5 23.5 50.5 l-154 0 l0 140 l332 0 l0 -103 q-3 -101 -45 -168 q-42 -67 -112.5 -100 q-70.5 -33 -161.5 -33 Z" /><glyph glyph-name="H" unicode="H" d="M60 0 l0 701 l185 0 l0 -260 l258 0 l0 259 l185 0 l0 -700 l-185 0 l0 271 l-258 0 l0 -271 l-185 0 Z" /><glyph glyph-name="Hbar" unicode="&#x126;" d="M5 504 l0 127 l738 0 l0 -127 l-738 0 ZM60 0 l0 701 l185 0 l0 -260 l258 0 l0 259 l185 0 l0 -700 l-185 0 l0 271 l-258 0 l0 -271 l-185 0 Z" /><glyph glyph-name="I" unicode="I" d="M60 0 l0 700 l185 0 l0 -700 l-185 0 Z" /><glyph glyph-name="Iacute" unicode="Í" d="M60 0 l0 700 l185 0 l0 -700 l-185 0 ZM56 751 l110 139 l190 0 l-130 -139 l-170 0 Z" /><glyph glyph-name="Idieresis" unicode="Ï" d="M265 769 q-35 0 -61.5 26.5 q-26.5 26.5 -26.5 61.5 q0 35 26.5 61.5 q26.5 26.5 61.5 26.5 q35 0 61.5 -26.5 q26.5 -26.5 26.5 -61.5 q0 -35 -26.5 -61.5 q-26.5 -26.5 -61.5 -26.5 ZM65 769 q-36 0 -62 26 q-26 26 -26 62 q0 36 26 62 q26 26 62 26 q36 0 62 -26 q26 -26 26 -62 q0 -36 -26 -62 q-26 -26 -62 -26 ZM60 0 l0 700 l185 0 l0 -700 l-185 0 Z" /><glyph glyph-name="J" unicode="J" d="M263 -16 q-65 0 -113 22 q-48 22 -79 56.5 q-31 34.5 -46 71.5 q-15 37 -15 67 l163 50 q11 -49 34 -73 q23 -24 58 -24 q26 0 45.5 11 q19.5 11 30.5 33.5 q11 22.5 11 56.5 l0 445 l185 0 l0 -491 q0 -49 -18.5 -90.5 q-18.5 -41.5 -54 -71.5 q-35.5 -30 -86.5 -46.5 q-51 -16.5 -115 -16.5 Z" /><glyph glyph-name="K" unicode="K" d="M60 0 l0 700 l185 0 l0 -233 l211 233 l243 0 l-291 -316 l300 -384 l-230 0 l-192 252 l-41 -45 l0 -207 l-185 0 Z" /><glyph glyph-name="L" unicode="L" d="M60 0 l0 700 l185 0 l0 -530 l288 0 l0 -170 l-473 0 Z" /><glyph glyph-name="Lslash" unicode="&#x141;" d="M0 221 l0 148 l334 181 l0 -148 l-334 -181 ZM60 0 l0 700 l185 0 l0 -530 l288 0 l0 -170 l-473 0 Z" /><glyph glyph-name="M" unicode="M" d="M60 0 l0 700 l205 0 l169 -250 l169 250 l205 0 l0 -700 l-185 0 l0 414 l-188 -274 l-190 274 l0 -414 l-185 0 Z" /><glyph glyph-name="N" unicode="N" d="M268 478 l0 -478 l-208 0 l0 700 l653 0 l0 -700 l-208 0 l0 478 l-237 0 Z" /><glyph glyph-name="Eng" unicode="&#x14a;" d="M509 -215 q-76 0 -124 35 l74 149 q9 -7 19.5 -11.5 q10.5 -4.5 20.5 -4.5 q29 0 29 40 l0 7 l185 0 l0 -21 q0 -91 -54 -142.5 q-54 -51.5 -150 -51.5 ZM60 0 l0 700 l195 0 l273 -385 l0 385 l185 0 l0 -700 l-185 0 l-283 399 l0 -399 l-185 0 Z" /><glyph glyph-name="O" unicode="O" d="M400 -12 q-110 0 -194.5 46.5 q-84.5 46.5 -132.5 128 q-48 81.5 -48 186.5 q0 106 48 187.5 q48 81.5 132 128 q84 46.5 193 46.5 q110 0 194 -46.5 q84 -46.5 132 -128 q48 -81.5 48 -187.5 q0 -105 -47.5 -186.5 q-47.5 -81.5 -131.5 -128 q-84 -46.5 -193 -46.5 ZM400 158 q54 0 95 24.5 q41 24.5 64 67.5 q23 43 23 99 q0 56 -23.5 99.5 q-23.5 43.5 -65 68 q-41.5 24.5 -95.5 24.5 q-53 0 -94.5 -24.5 q-41.5 -24.5 -65 -68 q-23.5 -43.5 -23.5 -99.5 q0 -56 24 -99 q24 -43 65.5 -67.5 q41.5 -24.5 95.5 -24.5 Z" /><glyph glyph-name="Oacute" unicode="Ó" d="M400 -12 q-110 0 -194.5 46.5 q-84.5 46.5 -132.5 128 q-48 81.5 -48 186.5 q0 106 48 187.5 q48 81.5 132 128 q84 46.5 193 46.5 q110 0 194 -46.5 q84 -46.5 132 -128 q48 -81.5 48 -187.5 q0 -105 -47.5 -186.5 q-47.5 -81.5 -131.5 -128 q-84 -46.5 -193 -46.5 ZM400 158 q54 0 95 24.5 q41 24.5 64 67.5 q23 43 23 99 q0 56 -23.5 99.5 q-23.5 43.5 -65 68 q-41.5 24.5 -95.5 24.5 q-53 0 -94.5 -24.5 q-41.5 -24.5 -65 -68 q-23.5 -43.5 -23.5 -99.5 q0 -56 24 -99 q24 -43 65.5 -67.5 q41.5 -24.5 95.5 -24.5 ZM300 751 l110 139 l190 0 l-130 -139 l-170 0 Z" /><glyph glyph-name="Omacron" unicode="&#x14c;" d="M400 -12 q-110 0 -194.5 46.5 q-84.5 46.5 -132.5 128 q-48 81.5 -48 186.5 q0 106 48 187.5 q48 81.5 132 128 q84 46.5 193 46.5 q110 0 194 -46.5 q84 -46.5 132 -128 q48 -81.5 48 -187.5 q0 -105 -47.5 -186.5 q-47.5 -81.5 -131.5 -128 q-84 -46.5 -193 -46.5 ZM400 158 q54 0 95 24.5 q41 24.5 64 67.5 q23 43 23 99 q0 56 -23.5 99.5 q-23.5 43.5 -65 68 q-41.5 24.5 -95.5 24.5 q-53 0 -94.5 -24.5 q-41.5 -24.5 -65 -68 q-23.5 -43.5 -23.5 -99.5 q0 -56 24 -99 q24 -43 65.5 -67.5 q41.5 -24.5 95.5 -24.5 ZM198 749 l0 151 l401 0 l0 -151 l-401 0 Z" /><glyph glyph-name="Oslash" unicode="Ø" d="M22 0 l602 700 l152 0 l-603 -700 l-151 0 ZM395 -12 q-110 0 -194.5 46.5 q-84.5 46.5 -132.5 128 q-48 81.5 -48 186.5 q0 106 48 187.5 q48 81.5 132 128 q84 46.5 193 46.5 q110 0 194 -46.5 q84 -46.5 132 -128 q48 -81.5 48 -187.5 q0 -105 -47.5 -186.5 q-47.5 -81.5 -131.5 -128 q-84 -46.5 -193 -46.5 ZM395 158 q54 0 95 24.5 q41 24.5 64 67.5 q23 43 23 99 q0 56 -23.5 99.5 q-23.5 43.5 -65 68 q-41.5 24.5 -95.5 24.5 q-53 0 -94.5 -24.5 q-41.5 -24.5 -65 -68 q-23.5 -43.5 -23.5 -99.5 q0 -56 24 -99 q24 -43 65.5 -67.5 q41.5 -24.5 95.5 -24.5 Z" /><glyph glyph-name="OE" unicode="&#x152;" d="M400 -12 q-110 0 -194.5 46.5 q-84.5 46.5 -132.5 128 q-48 81.5 -48 187.5 q0 105 48 186.5 q48 81.5 132 128 q84 46.5 193 46.5 q96 0 169.5 -45.5 q73.5 -45.5 115 -126 q41.5 -80.5 41.5 -185.5 q0 -107 -41.5 -189.5 q-41.5 -82.5 -114.5 -129.5 q-73 -47 -168 -47 ZM400 163 q51 0 89.5 24 q38.5 24 60 66 q21.5 42 21.5 97 q0 54 -22 96 q-22 42 -61 66 q-39 24 -90 24 q-52 0 -92 -24 q-40 -24 -63 -66 q-23 -42 -23 -97 q0 -54 23 -96 q23 -42 64 -66 q41 -24 93 -24 ZM570 0 l0 700 l469 0 l0 -170 l-284 0 l0 -97 l230 0 l0 -165 l-230 0 l0 -98 l291 0 l0 -170 l-476 0 Z" /><glyph glyph-name="P" unicode="P" d="M60 0 l0 700 l290 0 q79 0 140 -31 q61 -31 95.5 -86 q34.5 -55 34.5 -127 q0 -72 -34.5 -127.5 q-34.5 -55.5 -95.5 -87 q-61 -31.5 -140 -31.5 l-105 0 l0 -210 l-185 0 ZM245 380 l100 0 q38 0 61.5 21 q23.5 21 23.5 55 q0 33 -23.5 54 q-23.5 21 -61.5 21 l-100 0 l0 -151 Z" /><glyph glyph-name="Thorn" unicode="Þ" d="M70 1 l0 700 l190 0 l0 -100 l105 0 q79 0 140 -31 q61 -31 95.5 -86 q34.5 -55 34.5 -127 q0 -72 -34.5 -127.5 q-34.5 -55.5 -95.5 -87 q-61 -31.5 -140 -31.5 l-105 0 l0 -110 l-190 0 ZM260 281 l95 0 q38 0 61.5 21 q23.5 21 23.5 55 q0 33 -23.5 54 q-23.5 21 -61.5 21 l-95 0 l0 -151 Z" /><glyph glyph-name="Q" unicode="Q" d="M641 -44 l-67 69 q-38 -18 -82 -27.5 q-44 -9.5 -92 -9.5 q-110 0 -194.5 46.5 q-84.5 46.5 -132.5 128 q-48 81.5 -48 186.5 q0 80 27.5 146 q27.5 66 77.5 115 q50 49 118 75.5 q68 26.5 150 26.5 q110 0 194 -46.5 q84 -46.5 132 -128.5 q48 -82 48 -188 q0 -65 -18.5 -122 q-18.5 -57 -53.5 -102 l56 -57 l-115 -112 ZM400 158 q11 0 20 1 q9 1 19 3 l-63 64 l117 111 l72 -74 q8 19 12.5 40.5 q4.5 21.5 4.5 45.5 q0 57 -23.5 100.5 q-23.5 43.5 -65 68 q-41.5 24.5 -95.5 24.5 q-53 0 -94.5 -24.5 q-41.5 -24.5 -65 -68 q-23.5 -43.5 -23.5 -100.5 q0 -56 24 -99 q24 -43 65.5 -67.5 q41.5 -24.5 95.5 -24.5 Z" /><glyph glyph-name="R" unicode="R" d="M60 0 l0 700 l290 0 q79 0 140 -30.5 q61 -30.5 95.5 -84 q34.5 -53.5 34.5 -123.5 q0 -69 -34 -123 q-34 -54 -92 -84 l154 -255 l-212 0 l-126 222 q-6 0 -12 0 q-6 0 -12 0 l-41 0 l0 -222 l-185 0 ZM245 392 l95 0 q25 0 44 9 q19 9 30 25 q11 16 11 36 q0 30 -23.5 49.5 q-23.5 19.5 -61.5 19.5 l-95 0 l0 -139 Z" /><glyph glyph-name="S" unicode="S" d="M305 -12 q-49 0 -96 13.5 q-47 13.5 -85.5 37.5 q-38.5 24 -63.5 54.5 q-25 30.5 -30 64.5 l184 51 q9 -25 31 -42.5 q22 -17.5 57 -19.5 q28 -1 49.5 15 q21.5 16 21.5 42 q0 17 -12.5 32.5 q-12.5 15.5 -39.5 22.5 l-105 27 q-54 14 -92.5 43 q-38.5 29 -59 71 q-20.5 42 -20.5 94 q0 103 68.5 160.5 q68.5 57.5 192.5 57.5 q66 0 116.5 -17 q50.5 -17 87 -53.5 q36.5 -36.5 60.5 -95.5 l-183 -53 q-5 20 -25.5 40 q-20.5 20 -55.5 20 q-34 0 -52.5 -15 q-18.5 -15 -18.5 -44 q0 -18 15 -31.5 q15 -13.5 43 -20.5 l106 -27 q80 -20 125 -78.5 q45 -58.5 45 -133.5 q0 -69 -31.5 -117 q-31.5 -48 -90.5 -73 q-59 -25 -141 -25 Z" /><glyph glyph-name="uni1E9E" unicode="&#x1e9e;" d="M416 -12 q-19 0 -51 4 q-32 4 -60 14 l31 170 q11 -5 27 -8.5 q16 -3.5 37 -3.5 q30 0 54 18.5 q24 18.5 24 51.5 q0 28 -18 40 q-18 12 -70 12 l-61 0 l0 123 l90 119 q-23 8 -48.5 13 q-25.5 5 -54.5 5 q-31 0 -48.5 -16 q-17.5 -16 -17.5 -45 l0 -485 l-190 0 l0 543 q0 80 71 124.5 q71 44.5 198 44.5 q67 0 128.5 -20 q61.5 -20 112.5 -51 q51 -31 86 -63 l-129 -188 q68 -22 100 -70.5 q32 -48.5 32 -117.5 q0 -101 -62 -157.5 q-62 -56.5 -181 -56.5 Z" /><glyph glyph-name="T" unicode="T" d="M215 0 l0 530 l-198 0 l0 170 l580 0 l0 -170 l-197 0 l0 -530 l-185 0 Z" /><glyph glyph-name="U" unicode="U" d="M348 -12 q-93 0 -160 34 q-67 34 -102.5 97.5 q-35.5 63.5 -35.5 151.5 l0 429 l185 0 l0 -429 q0 -35 14 -60 q14 -25 39.5 -38 q25.5 -13 61.5 -13 q36 0 62 13 q26 13 39.5 38 q13.5 25 13.5 60 l0 429 l185 0 l0 -429 q0 -88 -36 -151.5 q-36 -63.5 -103.5 -97.5 q-67.5 -34 -162.5 -34 Z" /><glyph glyph-name="Uacute" unicode="Ú" d="M348 -12 q-93 0 -160 34 q-67 34 -102.5 97.5 q-35.5 63.5 -35.5 151.5 l0 429 l185 0 l0 -429 q0 -35 14 -60 q14 -25 39.5 -38 q25.5 -13 61.5 -13 q36 0 62 13 q26 13 39.5 38 q13.5 25 13.5 60 l0 429 l185 0 l0 -429 q0 -88 -36 -151.5 q-36 -63.5 -103.5 -97.5 q-67.5 -34 -162.5 -34 ZM251 751 l110 139 l190 0 l-130 -139 l-170 0 Z" /><glyph glyph-name="V" unicode="V" d="M276 0 l-269 700 l200 0 l169 -476 l167 476 l200 0 l-267 -700 l-200 0 Z" /><glyph glyph-name="W" unicode="W" d="M208 0 l-201 700 l189 0 l111 -415 l105 415 l184 0 l108 -404 l108 404 l189 0 l-201 -700 l-192 0 l-104 414 l-104 -414 l-192 0 Z" /><glyph glyph-name="X" unicode="X" d="M10 0 l257 361 l-249 339 l221 0 l131 -190 l130 190 l221 0 l-248 -338 l256 -362 l-223 0 l-136 208 l-137 -208 l-223 0 Z" /><glyph glyph-name="Y" unicode="Y" d="M251 0 l0 297 l-246 403 l210 0 l128 -219 l128 219 l210 0 l-245 -402 l0 -298 l-185 0 Z" /><glyph glyph-name="Z" unicode="Z" d="M30 0 l0 175 l322 350 l-319 0 l0 175 l561 0 l0 -175 l-322 -350 l319 0 l0 -175 l-561 0 Z" /><glyph glyph-name="a" unicode="a" d="M204 -12 q-87 0 -135.5 39.5 q-48.5 39.5 -48.5 113.5 q0 78 48.5 115.5 q48.5 37.5 135.5 37.5 l126 0 q-3 33 -18 53.5 q-15 20.5 -56 20.5 q-25 0 -41 -12 q-16 -12 -27 -28 l-157 50 q21 41 52.5 71 q31.5 30 74 46.5 q42.5 16.5 94.5 16.5 q80 0 137 -29 q57 -29 87 -81 q30 -52 30 -121 l0 -281 l-169 0 l-2 44 q-22 -28 -55.5 -42 q-33.5 -14 -75.5 -14 ZM251 114 q25 0 43 9 q18 9 28 26 q10 17 10 39 l0 3 l-57 0 q-35 0 -54 -12 q-19 -12 -19 -34 q0 -15 13 -23 q13 -8 36 -8 Z" /><glyph glyph-name="ae" unicode="æ" d="M337 160 l-5 85 q-2 35 -6 63 q-4 28 -21 44 q-17 16 -57 16 q-22 0 -37 -9.5 q-15 -9.5 -31 -30.5 l-159 50 q35 62 92 98 q57 36 139 36 q101 0 157.5 -63.5 q56.5 -63.5 56.5 -167.5 l0 -121 l-129 0 ZM204 -12 q-87 0 -135.5 39.5 q-48.5 39.5 -48.5 113.5 q0 78 48.5 115.5 q48.5 37.5 135.5 37.5 l147 0 l0 -103 l-78 0 q-35 0 -54 -12 q-19 -12 -19 -34 q0 -15 12.5 -23 q12.5 -8 34.5 -8 q37 0 58.5 22 q21.5 22 21.5 59 l140 19 q0 -109 -69.5 -167.5 q-69.5 -58.5 -193.5 -58.5 ZM604 -12 q-81 0 -144 33 q-63 33 -98.5 92 q-35.5 59 -35.5 137 q0 78 35 137 q35 59 97 92 q62 33 143 33 q77 0 135.5 -33.5 q58.5 -33.5 92 -101.5 q33.5 -68 33.5 -172 l-350 0 q5 -37 27.5 -58.5 q22.5 -21.5 59.5 -21.5 q33 0 57.5 15.5 q24.5 15.5 30.5 38.5 l158 -49 q-18 -52 -57.5 -83.5 q-39.5 -31.5 -88 -45 q-48.5 -13.5 -95.5 -13.5 ZM513 315 l166 0 q-5 28 -18 44 q-13 16 -30 22.5 q-17 6.5 -35 6.5 q-18 0 -35 -6.5 q-17 -6.5 -30 -22.5 q-13 -16 -18 -44 Z" /><glyph glyph-name="b" unicode="b" d="M359 -12 q-46 0 -80 17.5 q-34 17.5 -57 51.5 l-6 -57 l-171 0 l0 700 l180 0 l0 -252 q23 32 56 48 q33 16 78 16 q71 0 121.5 -31 q50.5 -31 77.5 -89.5 q27 -58.5 27 -141.5 q0 -82 -27 -141 q-27 -59 -77.5 -90 q-50.5 -31 -121.5 -31 ZM311 154 q25 0 44 12.5 q19 12.5 30.5 34 q11.5 21.5 11.5 49.5 q0 28 -11 49.5 q-11 21.5 -30 33.5 q-19 12 -44 12 q-25 0 -45 -12 q-20 -12 -31 -33.5 q-11 -21.5 -11 -49.5 q0 -28 11 -49.5 q11 -21.5 30.5 -34 q19.5 -12.5 44.5 -12.5 Z" /><glyph glyph-name="c" unicode="c" d="M302 -12 q-82 0 -146 33.5 q-64 33.5 -100 93 q-36 59.5 -36 135.5 q0 77 36 136 q36 59 99 92.5 q63 33.5 145 33.5 q79 0 145 -41 q66 -41 94 -119 l-172 -56 q-8 20 -29.5 33 q-21.5 13 -47.5 13 q-25 0 -44 -11.5 q-19 -11.5 -30 -32.5 q-11 -21 -11 -48 q0 -27 11 -47.5 q11 -20.5 31 -32.5 q20 -12 45 -12 q25 0 46 13 q21 13 30 33 l172 -55 q-28 -78 -93.5 -119.5 q-65.5 -41.5 -144.5 -41.5 Z" /><glyph glyph-name="d" unicode="d" d="M246 -12 q-71 0 -121.5 31 q-50.5 31 -77.5 90 q-27 59 -27 141 q0 83 27 141.5 q27 58.5 77.5 89.5 q50.5 31 121.5 31 q44 0 77.5 -16 q33.5 -16 55.5 -47 l0 251 l180 0 l0 -700 l-171 0 l-5 56 q-22 -33 -56.5 -50.5 q-34.5 -17.5 -80.5 -17.5 ZM294 154 q23 0 41 10 q18 10 29.5 28.5 q11.5 18.5 14.5 41.5 l0 32 q-3 23 -14.5 41 q-11.5 18 -30 28 q-18.5 10 -41.5 10 q-24 0 -43.5 -12 q-19.5 -12 -30.5 -33.5 q-11 -21.5 -11 -49.5 q0 -28 11.5 -49.5 q11.5 -21.5 31 -34 q19.5 -12.5 43.5 -12.5 Z" /><glyph glyph-name="dcroat" unicode="&#x111;" d="M260 545 l0 105 l354 0 l0 -105 l-354 0 ZM246 -12 q-71 0 -121.5 31 q-50.5 31 -77.5 90 q-27 59 -27 141 q0 83 27 141.5 q27 58.5 77.5 89.5 q50.5 31 121.5 31 q44 0 77.5 -16 q33.5 -16 55.5 -47 l0 251 l180 0 l0 -700 l-171 0 l-5 56 q-22 -33 -56.5 -50.5 q-34.5 -17.5 -80.5 -17.5 ZM294 154 q23 0 41 10 q18 10 29.5 28.5 q11.5 18.5 14.5 41.5 l0 32 q-3 23 -14.5 41 q-11.5 18 -30 28 q-18.5 10 -41.5 10 q-24 0 -43.5 -12 q-19.5 -12 -30.5 -33.5 q-11 -21.5 -11 -49.5 q0 -28 11.5 -49.5 q11.5 -21.5 31 -34 q19.5 -12.5 43.5 -12.5 Z" /><glyph glyph-name="eth" unicode="ð" d="M275 -12 q-75 0 -132.5 29 q-57.5 29 -90 80.5 q-32.5 51.5 -32.5 118.5 q0 67 28 118 q28 51 80 80.5 q52 29.5 122 29.5 q50 0 102 -27 q-5 26 -16.5 49 q-11.5 23 -30.5 41 l-76 -54 l-42 60 l51 37 q-45 20 -113 36 l32 145 q71 -10 125.5 -31.5 q54.5 -21.5 94.5 -50.5 l81 58 l44 -60 l-69 -49 q42 -48 63.5 -108 q21.5 -60 28 -125 q6.5 -65 4.5 -129 q0 -72 -32.5 -128 q-32.5 -56 -90 -88 q-57.5 -32 -131.5 -32 ZM275 150 q21 0 36 8.5 q15 8.5 23.5 23.5 q8.5 15 8.5 34 q0 19 -8.5 33.5 q-8.5 14.5 -24.5 23 q-16 8.5 -37 8.5 q-19 0 -34.5 -8.5 q-15.5 -8.5 -24 -23 q-8.5 -14.5 -8.5 -33.5 q0 -19 8.5 -34 q8.5 -15 24 -23.5 q15.5 -8.5 36.5 -8.5 Z" /><glyph glyph-name="e" unicode="e" d="M298 -12 q-81 0 -144 33 q-63 33 -98.5 92 q-35.5 59 -35.5 137 q0 78 35 137 q35 59 97 92 q62 33 143 33 q77 0 135.5 -33.5 q58.5 -33.5 92 -101.5 q33.5 -68 33.5 -172 l-350 0 q5 -37 27.5 -58.5 q22.5 -21.5 59.5 -21.5 q33 0 57.5 15.5 q24.5 15.5 30.5 38.5 l158 -49 q-18 -52 -57.5 -83.5 q-39.5 -31.5 -88 -45 q-48.5 -13.5 -95.5 -13.5 ZM207 315 l166 0 q-5 28 -18 44 q-13 16 -30 22.5 q-17 6.5 -35 6.5 q-18 0 -35 -6.5 q-17 -6.5 -30 -22.5 q-13 -16 -18 -44 Z" /><glyph glyph-name="f" unicode="f" d="M95 0 l0 360 l-75 0 l0 140 l75 0 l0 43 q0 83 45 132 q45 49 138 49 q38 0 77.5 -12.5 q39.5 -12.5 64.5 -28.5 l-67 -125 q-9 8 -19.5 11 q-10.5 3 -20.5 3 q-20 0 -29 -14.5 q-9 -14.5 -9 -50.5 l0 -7 l103 0 l0 -140 l-103 0 l0 -360 l-180 0 Z" /><glyph glyph-name="g" unicode="g" d="M292 -214 q-65 0 -112.5 7 q-47.5 7 -80.5 20.5 q-33 13.5 -57 32.5 l71 143 q16 -8 37.5 -18.5 q21.5 -10.5 53.5 -18.5 q32 -8 79 -8 q31 0 55 12 q24 12 37.5 36 q13.5 24 13.5 60 l0 44 q-23 -34 -59.5 -53 q-36.5 -19 -83.5 -19 q-71 0 -121.5 27.5 q-50.5 27.5 -77.5 79 q-27 51.5 -27 123.5 q0 81 27 138.5 q27 57.5 77.5 88.5 q50.5 31 121.5 31 q47 0 83.5 -21.5 q36.5 -21.5 59.5 -62.5 l0 72 l180 0 l0 -440 q0 -83 -31.5 -145 q-31.5 -62 -93 -95.5 q-61.5 -33.5 -152.5 -33.5 ZM301 173 q25 0 42.5 11.5 q17.5 11.5 27 31.5 q9.5 20 9.5 45 q0 27 -10 47 q-10 20 -27.5 31 q-17.5 11 -42.5 11 q-24 0 -42 -11 q-18 -11 -28 -31 q-10 -20 -11 -47 q1 -25 11 -45 q10 -20 28.5 -31.5 q18.5 -11.5 42.5 -11.5 Z" /><glyph glyph-name="h" unicode="h" d="M47 0 l0 700 l180 0 l0 -256 q25 34 59 51 q34 17 74 17 q61 0 101 -24.5 q40 -24.5 59.5 -74.5 q19.5 -50 19.5 -127 l0 -286 l-180 0 l0 256 q0 29 -6.5 47.5 q-6.5 18.5 -19 28.5 q-12.5 10 -31.5 11 q-38 2 -57 -17 q-19 -19 -19 -60 l0 -266 l-180 0 Z" /><glyph glyph-name="hbar" unicode="&#x127;" d="M0 545 l0 105 l354 0 l0 -105 l-354 0 ZM47 0 l0 700 l180 0 l0 -256 q25 34 59 51 q34 17 74 17 q61 0 101 -24.5 q40 -24.5 59.5 -74.5 q19.5 -50 19.5 -127 l0 -286 l-180 0 l0 256 q0 29 -6.5 47.5 q-6.5 18.5 -19 28.5 q-12.5 10 -31.5 11 q-38 2 -57 -17 q-19 -19 -19 -60 l0 -266 l-180 0 Z" /><glyph glyph-name="dotlessi" unicode="&#x131;" d="M55 0 l0 500 l180 0 l0 -500 l-180 0 Z" /><glyph glyph-name="idieresis" unicode="ï" d="M245 569 q-35 0 -61.5 26.5 q-26.5 26.5 -26.5 61.5 q0 35 26.5 61.5 q26.5 26.5 61.5 26.5 q35 0 61.5 -26.5 q26.5 -26.5 26.5 -61.5 q0 -35 -26.5 -61.5 q-26.5 -26.5 -61.5 -26.5 ZM45 569 q-36 0 -62 26 q-26 26 -26 62 q0 36 26 62 q26 26 62 26 q36 0 62 -26 q26 -26 26 -62 q0 -36 -26 -62 q-26 -26 -62 -26 ZM55 0 l0 500 l180 0 l0 -500 l-180 0 Z" /><glyph glyph-name="j" unicode="j" d="M163 542 q-42 0 -72.5 30.5 q-30.5 30.5 -30.5 72.5 q0 42 30.5 72.5 q30.5 30.5 72.5 30.5 q42 0 72.5 -30.5 q30.5 -30.5 30.5 -72.5 q0 -42 -30.5 -72.5 q-30.5 -30.5 -72.5 -30.5 ZM52 -215 q-74 0 -122 35 l74 149 q9 -7 19.5 -11.5 q10.5 -4.5 20.5 -4.5 q29 0 29 40 l0 507 l180 0 l0 -521 q0 -91 -53 -142.5 q-53 -51.5 -148 -51.5 Z" /><glyph glyph-name="uni0237" unicode="&#x237;" d="M52 -215 q-74 0 -122 35 l74 149 q9 -7 19.5 -11.5 q10.5 -4.5 20.5 -4.5 q29 0 29 40 l0 507 l180 0 l0 -521 q0 -91 -53 -142.5 q-53 -51.5 -148 -51.5 Z" /><glyph glyph-name="k" unicode="k" d="M45 0 l0 700 l180 0 l0 -349 l131 149 l210 0 l-191 -221 l201 -279 l-207 0 l-107 149 l-37 -42 l0 -107 l-180 0 Z" /><glyph glyph-name="l" unicode="l" d="M45 0 l0 700 l180 0 l0 -700 l-180 0 Z" /><glyph glyph-name="lslash" unicode="&#x142;" d="M0 204 l0 138 l290 154 l0 -138 l-290 -154 ZM55 0 l0 700 l180 0 l0 -700 l-180 0 Z" /><glyph glyph-name="m" unicode="m" d="M45 0 l0 500 l170 0 l7 -61 q24 36 59 54.5 q35 18.5 77 18.5 q62 0 102 -24.5 q40 -24.5 59 -75.5 q24 49 63.5 74.5 q39.5 25.5 88.5 25.5 q92 0 136 -55 q44 -55 44 -171 l0 -286 l-180 0 l0 256 q0 29 -6.5 47.5 q-6.5 18.5 -19 28.5 q-12.5 10 -31.5 11 q-38 2 -57 -17 q-19 -19 -19 -60 l0 -266 l-180 0 l0 256 q0 29 -6.5 47.5 q-6.5 18.5 -19 28.5 q-12.5 10 -31.5 11 q-38 2 -57 -17 q-19 -19 -19 -60 l0 -266 l-180 0 Z" /><glyph glyph-name="n" unicode="n" d="M45 0 l0 500 l170 0 l7 -61 q24 35 59 54 q35 19 77 19 q61 0 101 -24.5 q40 -24.5 59.5 -74.5 q19.5 -50 19.5 -127 l0 -286 l-180 0 l0 256 q0 29 -6.5 47.5 q-6.5 18.5 -19 28.5 q-12.5 10 -31.5 11 q-38 2 -57 -17 q-19 -19 -19 -60 l0 -266 l-180 0 Z" /><glyph glyph-name="eng" unicode="&#x14b;" d="M337 -215 q-74 0 -122 35 l74 149 q9 -7 19.5 -11.5 q10.5 -4.5 20.5 -4.5 q29 0 29 40 l0 263 q0 29 -6.5 47.5 q-6.5 18.5 -19 28.5 q-12.5 10 -31.5 11 q-38 2 -57 -17 q-19 -19 -19 -60 l0 -266 l-180 0 l0 500 l170 0 l7 -61 q24 35 59 54 q35 19 77 19 q61 0 101 -24.5 q40 -24.5 59.5 -74.5 q19.5 -50 19.5 -127 l0 -307 q0 -91 -53 -142.5 q-53 -51.5 -148 -51.5 Z" /><glyph glyph-name="o" unicode="o" d="M293 -12 q-80 0 -141.5 33.5 q-61.5 33.5 -96.5 92.5 q-35 59 -35 136 q0 77 34.5 136 q34.5 59 96 92.5 q61.5 33.5 140.5 33.5 q80 0 141.5 -33.5 q61.5 -33.5 96 -92.5 q34.5 -59 34.5 -136 q0 -77 -34.5 -136 q-34.5 -59 -95.5 -92.5 q-61 -33.5 -140 -33.5 ZM293 154 q25 0 44 12.5 q19 12.5 30 34 q11 21.5 11 49.5 q0 28 -11 49.5 q-11 21.5 -30.5 34 q-19.5 12.5 -45.5 12.5 q-25 0 -44.5 -12.5 q-19.5 -12.5 -30.5 -34 q-11 -21.5 -11 -49.5 q0 -28 11 -49.5 q11 -21.5 31 -34 q20 -12.5 46 -12.5 Z" /><glyph glyph-name="oslash" unicode="ø" d="M7 0 l422 500 l142 0 l-423 -500 l-141 0 ZM288 -12 q-80 0 -141.5 33.5 q-61.5 33.5 -96.5 92.5 q-35 59 -35 136 q0 77 34.5 136 q34.5 59 96 92.5 q61.5 33.5 140.5 33.5 q80 0 141.5 -33.5 q61.5 -33.5 96 -92.5 q34.5 -59 34.5 -136 q0 -77 -34.5 -136 q-34.5 -59 -95.5 -92.5 q-61 -33.5 -140 -33.5 ZM288 154 q25 0 44 12.5 q19 12.5 30 34 q11 21.5 11 49.5 q0 28 -11 49.5 q-11 21.5 -30.5 34 q-19.5 12.5 -45.5 12.5 q-25 0 -44.5 -12.5 q-19.5 -12.5 -30.5 -34 q-11 -21.5 -11 -49.5 q0 -28 11 -49.5 q11 -21.5 31 -34 q20 -12.5 46 -12.5 Z" /><glyph glyph-name="p" unicode="p" d="M50 -200 l0 700 l170 0 l6 -57 q23 34 57.5 51.5 q34.5 17.5 80.5 17.5 q71 0 121.5 -31 q50.5 -31 77.5 -89.5 q27 -58.5 27 -141.5 q0 -82 -27 -141 q-27 -59 -77.5 -90 q-50.5 -31 -121.5 -31 q-45 0 -78 16.5 q-33 16.5 -56 47.5 l0 -252 l-180 0 ZM316 154 q25 0 44 12.5 q19 12.5 30.5 34 q11.5 21.5 11.5 49.5 q0 28 -11 49.5 q-11 21.5 -30 33.5 q-19 12 -44 12 q-25 0 -45 -12 q-20 -12 -31 -33.5 q-11 -21.5 -11 -49.5 q0 -28 11 -49.5 q11 -21.5 30.5 -34 q19.5 -12.5 44.5 -12.5 Z" /><glyph glyph-name="thorn" unicode="þ" d="M45 -200 l0 900 l180 0 l0 -252 q23 32 56 48 q33 16 78 16 q71 0 121.5 -31 q50.5 -31 77.5 -89.5 q27 -58.5 27 -141.5 q0 -82 -27 -141 q-27 -59 -77.5 -90 q-50.5 -31 -121.5 -31 q-45 0 -78 16.5 q-33 16.5 -56 47.5 l0 -252 l-180 0 ZM311 154 q25 0 44 12.5 q19 12.5 30.5 34 q11.5 21.5 11.5 49.5 q0 28 -11 49.5 q-11 21.5 -30 33.5 q-19 12 -44 12 q-25 0 -45 -12 q-20 -12 -31 -33.5 q-11 -21.5 -11 -49.5 q0 -28 11 -49.5 q11 -21.5 30.5 -34 q19.5 -12.5 44.5 -12.5 Z" /><glyph glyph-name="q" unicode="q" d="M380 -200 l0 252 q-22 -31 -55.5 -47.5 q-33.5 -16.5 -78.5 -16.5 q-71 0 -121.5 31 q-50.5 31 -77.5 90 q-27 59 -27 141 q0 83 27 141.5 q27 58.5 77.5 89.5 q50.5 31 121.5 31 q47 0 81.5 -18 q34.5 -18 56.5 -52 l6 58 l170 0 l0 -700 l-180 0 ZM294 154 q25 0 44.5 12.5 q19.5 12.5 30.5 34 q11 21.5 11 49.5 q0 28 -11 49.5 q-11 21.5 -30.5 33.5 q-19.5 12 -45.5 12 q-24 0 -43 -12 q-19 -12 -30 -33.5 q-11 -21.5 -12 -49.5 q1 -28 12 -49.5 q11 -21.5 30.5 -34 q19.5 -12.5 43.5 -12.5 Z" /><glyph glyph-name="r" unicode="r" d="M45 0 l0 500 l180 0 l0 -94 q32 47 79.5 71.5 q47.5 24.5 97.5 24.5 l0 -176 q-47 0 -87.5 -8.5 q-40.5 -8.5 -65 -25.5 q-24.5 -17 -24.5 -41 l0 -251 l-180 0 Z" /><glyph glyph-name="s" unicode="s" d="M234 -12 q-50 0 -93 14 q-43 14 -73.5 39.5 q-30.5 25.5 -42.5 61.5 l143 56 q11 -27 31 -34.5 q20 -7.5 35 -7.5 q16 0 26 7 q10 7 10 20 q0 14 -14 23.5 q-14 9.5 -43 16.5 l-41 10 q-67 17 -101 59 q-34 42 -34 98 q0 77 56.5 119 q56.5 42 153.5 42 q59 0 99.5 -14.5 q40.5 -14.5 66.5 -40.5 q26 -26 40 -60 l-139 -53 q-7 20 -23.5 29 q-16.5 9 -40.5 9 q-17 0 -26.5 -8 q-9.5 -8 -9.5 -19 q0 -12 14.5 -20.5 q14.5 -8.5 44.5 -16.5 l41 -10 q46 -11 80 -33.5 q34 -22.5 53 -55.5 q19 -33 19 -76 q0 -49 -29 -83.5 q-29 -34.5 -81 -53 q-52 -18.5 -122 -18.5 Z" /><glyph glyph-name="germandbls" unicode="ß" d="M45 0 l0 476 q0 81 32.5 133.5 q32.5 52.5 91.5 77.5 q59 25 137 25 q75 0 132 -22.5 q57 -22.5 89 -69.5 q32 -47 32 -121 q0 -33 -13.5 -66 q-13.5 -33 -39.5 -62 q41 -24 59.5 -65 q18.5 -41 18.5 -104 q0 -65 -29.5 -110 q-29.5 -45 -82 -68.5 q-52.5 -23.5 -120.5 -23.5 l-58 0 l0 163 l36 0 q33 0 52.5 18 q19.5 18 19.5 40 q0 25 -20 40 q-20 15 -52 15 l-36 0 l0 159 l12 0 q22 0 38.5 8 q16.5 8 25.5 23 q9 15 9 36 q0 29 -22 43.5 q-22 14.5 -53 14.5 q-37 0 -58 -21 q-21 -21 -21 -63 l0 -476 l-180 0 Z" /><glyph glyph-name="t" unicode="t" d="M268 -12 q-93 0 -138 44 q-45 44 -45 126 l0 192 l-75 0 l0 150 l75 0 l0 156 l180 0 l0 -156 l103 0 l0 -150 l-103 0 l0 -143 q0 -28 8 -40 q8 -12 27 -12 q8 0 20 5 q12 5 19 10 l61 -130 q-23 -20 -60 -36 q-37 -16 -72 -16 Z" /><glyph glyph-name="tcaron" unicode="&#x165;" d="M268 -12 q-93 0 -138 44 q-45 44 -45 126 l0 192 l-75 0 l0 150 l75 0 l0 156 l180 0 l0 -156 l103 0 l0 -150 l-103 0 l0 -143 q0 -28 8 -40 q8 -12 27 -12 q8 0 20 5 q12 5 19 10 l61 -130 q-23 -20 -60 -36 q-37 -16 -72 -16 ZM280 581 l23 119 l150 0 l-43 -119 l-130 0 Z" /><glyph glyph-name="u" unicode="u" d="M220 -12 q-61 0 -101 24.5 q-40 24.5 -59.5 74.5 q-19.5 50 -19.5 127 l0 286 l180 0 l0 -256 q0 -28 6.5 -47 q6.5 -19 19 -29 q12.5 -10 31.5 -11 q38 -1 57 18 q19 19 19 59 l0 266 l180 0 l0 -500 l-170 0 l-7 61 q-24 -35 -59 -54 q-35 -19 -77 -19 Z" /><glyph glyph-name="v" unicode="v" d="M206 0 l-201 500 l186 0 l104 -295 l104 295 l186 0 l-201 -500 l-178 0 Z" /><glyph glyph-name="w" unicode="w" d="M180 0 l-170 500 l184 0 l79 -262 l80 262 l177 0 l77 -254 l82 254 l184 0 l-171 -500 l-176 0 l-85 288 l-85 -288 l-176 0 Z" /><glyph glyph-name="x" unicode="x" d="M10 0 l188 259 l-175 241 l212 0 l62 -94 l61 94 l212 0 l-174 -242 l186 -258 l-213 0 l-72 112 l-73 -112 l-214 0 Z" /><glyph glyph-name="y" unicode="y" d="M196 -212 q-35 0 -74 13.5 q-39 13.5 -62 28.5 l67 145 q11 -9 23.5 -14.5 q12.5 -5.5 23.5 -5.5 q16 0 30.5 8 q14.5 8 22.5 27 l8 20 l-235 490 l200 0 l116 -289 l106 289 l200 0 l-215 -518 q-23 -56 -48 -100 q-25 -44 -62.5 -69 q-37.5 -25 -100.5 -25 Z" /><glyph glyph-name="z" unicode="z" d="M20 0 l0 125 l202 230 l-202 0 l0 145 l424 0 l0 -125 l-202 -231 l202 0 l0 -144 l-424 0 Z" /><glyph glyph-name="ordfeminine" unicode="ª" d="M201 400 l-2 145 q0 18 -1.5 33.5 q-1.5 15.5 -10.5 24.5 q-9 9 -33 9 q-10 0 -17 -4.5 q-7 -4.5 -17 -15.5 l-106 32 q22 38 56.5 60.5 q34.5 22.5 86.5 22.5 q74 0 116 -38.5 q42 -38.5 42 -98.5 l0 -170 l-114 0 ZM124 393 q-52 0 -81 23.5 q-29 23.5 -29 68.5 q0 47 29.5 69 q29.5 22 80.5 22 l84 0 l0 -66 l-36 0 q-38 0 -38 -23 q0 -5 5.5 -8 q5.5 -3 15.5 -3 q18 0 29 10.5 q11 10.5 11 28.5 l31 13 q0 -65 -27 -100 q-27 -35 -75 -35 Z" /><glyph glyph-name="ordmasculine" unicode="º" d="M181 393 q-49 0 -86.5 20 q-37.5 20 -59 55.5 q-21.5 35.5 -21.5 81.5 q0 46 21 81.5 q21 35.5 58.5 55.5 q37.5 20 85.5 20 q74 0 120 -44 q46 -44 46 -113 q0 -46 -21 -81.5 q-21 -35.5 -58 -55.5 q-37 -20 -85 -20 ZM181 504 q17 0 29 13 q12 13 12 33 q0 20 -12 33.5 q-12 13.5 -31 13.5 q-18 0 -29.5 -13.5 q-11.5 -13.5 -11.5 -33.5 q0 -20 12 -33 q12 -13 31 -13 Z" /><glyph glyph-name="zero" unicode="0" d="M327 -12 q-88 0 -156.5 46.5 q-68.5 46.5 -107 128 q-38.5 81.5 -38.5 187.5 q0 106 38.5 187.5 q38.5 81.5 106 128 q67.5 46.5 155.5 46.5 q90 0 158.5 -46.5 q68.5 -46.5 107.5 -128 q39 -81.5 39 -187.5 q0 -106 -39 -187.5 q-39 -81.5 -107 -128 q-68 -46.5 -157 -46.5 ZM327 156 q36 0 63.5 25 q27.5 25 43.5 68.5 q16 43.5 16 100.5 q0 58 -16 102 q-16 44 -44 69 q-28 25 -65 25 q-35 0 -62 -25 q-27 -25 -42.5 -69 q-15.5 -44 -15.5 -102 q0 -57 15.5 -100.5 q15.5 -43.5 43.5 -68.5 q28 -25 63 -25 Z" /><glyph glyph-name="one" unicode="1" d="M175 0 l0 472 q-32 -18 -67 -26.5 q-35 -8.5 -73 -4.5 l0 168 q29 -3 57.5 11 q28.5 14 55.5 36.5 q27 22.5 48 43.5 l154 0 l0 -700 l-175 0 Z" /><glyph glyph-name="two" unicode="2" d="M45 0 l0 130 q0 26 22 62.5 q22 36.5 60.5 75 q38.5 38.5 86.5 69.5 l70 45 q18 12 38 27.5 q20 15.5 34 34.5 q14 19 14 38 q0 18 -8.5 32 q-8.5 14 -26 21.5 q-17.5 7.5 -46.5 7.5 q-20 0 -36 -9 q-16 -9 -26.5 -24 q-10.5 -15 -15.5 -33 l-191 31 q9 54 43.5 101 q34.5 47 92 75.5 q57.5 28.5 133.5 28.5 q85 0 145.5 -29 q60.5 -29 93 -80.5 q32.5 -51.5 32.5 -119.5 q0 -75 -41.5 -126.5 q-41.5 -51.5 -106.5 -93.5 l-57 -37 q-19 -12 -39 -28 q-20 -16 -38 -37 l289 0 l0 -162 l-522 0 Z" /><glyph glyph-name="three" unicode="3" d="M292 -12 q-71 0 -129.5 21.5 q-58.5 21.5 -96 64.5 q-37.5 43 -46.5 107 l178 36 q4 -11 11.5 -28 q7.5 -17 24 -29.5 q16.5 -12.5 46.5 -12.5 q34 0 52.5 17.5 q18.5 17.5 18.5 47.5 q0 15 -6 30.5 q-6 15.5 -27.5 25.5 q-21.5 10 -67.5 10 l-62 0 l0 149 l62 0 q56 0 74 18 q18 18 18 49 q0 18 -8 31 q-8 13 -22 20.5 q-14 7.5 -32 7.5 q-13 0 -29.5 -5.5 q-16.5 -5.5 -30 -20.5 q-13.5 -15 -18.5 -46 l-177 36 q9 65 48.5 108.5 q39.5 43.5 96 65 q56.5 21.5 114.5 21.5 q68 0 123 -24.5 q55 -24.5 87.5 -69 q32.5 -44.5 32.5 -104.5 q0 -57 -31.5 -96 q-31.5 -39 -80.5 -62 q55 -28 88.5 -71.5 q33.5 -43.5 33.5 -98.5 q0 -64 -35.5 -108.5 q-35.5 -44.5 -91.5 -67 q-56 -22.5 -118 -22.5 Z" /><glyph glyph-name="four" unicode="4" d="M338 0 l0 108 l-328 0 l0 149 l302 443 l200 0 l0 -435 l103 0 l0 -157 l-103 0 l0 -108 l-174 0 ZM192 265 l146 0 l0 214 l-146 -214 Z" /><glyph glyph-name="five" unicode="5" d="M296 -12 q-55 0 -111 19.5 q-56 19.5 -98.5 56.5 q-42.5 37 -56.5 89 l179 36 q8 -21 29 -31 q21 -10 45 -10 q36 0 58.5 21.5 q22.5 21.5 22.5 58.5 q0 32 -22 56 q-22 24 -60 24 q-25 0 -42 -12 q-17 -12 -25 -27 l-166 36 l50 395 l416 0 l0 -168 l-261 0 l-20 -118 q26 14 58.5 22.5 q32.5 8.5 72.5 7.5 q51 -1 95 -27.5 q44 -26.5 70.5 -72 q26.5 -45.5 26.5 -105.5 q0 -74 -33.5 -131 q-33.5 -57 -92 -88.5 q-58.5 -31.5 -135.5 -31.5 Z" /><glyph glyph-name="six" unicode="6" d="M299 -12 q-69 0 -119.5 24 q-50.5 24 -83.5 67 q-33 43 -49.5 100.5 q-16.5 57.5 -16.5 125.5 q0 72 15 144 q15 72 49 131.5 q34 59.5 92.5 95.5 q58.5 36 145.5 36 q59 0 112.5 -16 q53.5 -16 96.5 -46 l-87 -136 q-31 20 -65 28.5 q-34 8.5 -59 8.5 q-55 0 -91 -52 q-36 -52 -36 -172 l-37 19 q23 50 66.5 80.5 q43.5 30.5 104.5 30.5 q66 0 117 -33 q51 -33 80 -88 q29 -55 29 -122 q0 -64 -32 -115.5 q-32 -51.5 -91 -81 q-59 -29.5 -141 -29.5 ZM300 142 q22 0 40 11 q18 11 28.5 29.5 q10.5 18.5 10.5 41.5 q0 24 -10.5 43.5 q-10.5 19.5 -28.5 31 q-18 11.5 -40 11.5 q-22 0 -40.5 -11.5 q-18.5 -11.5 -29.5 -31 q-11 -19.5 -11 -43.5 q0 -23 11 -41.5 q11 -18.5 29.5 -29.5 q18.5 -11 40.5 -11 Z" /><glyph glyph-name="seven" unicode="7" d="M104 0 l233 530 l-312 0 l0 170 l518 0 l0 -130 l-234 -570 l-205 0 Z" /><glyph glyph-name="eight" unicode="8" d="M304 -12 q-92 0 -153 24.5 q-61 24.5 -91 68 q-30 43.5 -30 101.5 q0 63 29 111 q29 48 89 75 q-49 24 -73.5 63.5 q-24.5 39.5 -24.5 90.5 q0 56 29 99 q29 43 85.5 67 q56.5 24 139.5 24 q83 0 140 -24 q57 -24 86.5 -67 q29.5 -43 29.5 -99 q0 -51 -25 -90.5 q-25 -39.5 -74 -63.5 q59 -26 89 -74.5 q30 -48.5 30 -111.5 q0 -58 -30.5 -101.5 q-30.5 -43.5 -91.5 -68 q-61 -24.5 -154 -24.5 ZM304 140 q38 0 62 19.5 q24 19.5 24 49.5 q0 36 -24 58.5 q-24 22.5 -62 22.5 q-24 0 -43 -10 q-19 -10 -30 -28.5 q-11 -18.5 -11 -42.5 q0 -20 11 -35.5 q11 -15.5 30 -24.5 q19 -9 43 -9 ZM304 427 q33 0 54.5 20.5 q21.5 20.5 21.5 51.5 q0 30 -21.5 49 q-21.5 19 -54.5 19 q-33 0 -53.5 -19 q-20.5 -19 -20.5 -49 q0 -31 20.5 -51.5 q20.5 -20.5 53.5 -20.5 Z" /><glyph glyph-name="nine" unicode="9" d="M294 711 q69 0 119.5 -24 q50.5 -24 83.5 -67 q33 -43 49.5 -100.5 q16.5 -57.5 16.5 -125.5 q0 -72 -15 -144 q-15 -72 -49 -131.5 q-34 -59.5 -92.5 -95.5 q-58.5 -36 -145.5 -36 q-58 0 -111.5 16 q-53.5 16 -97.5 46 l87 136 q31 -20 65 -28.5 q34 -8.5 59 -8.5 q55 0 91 52 q36 52 36 172 l37 -19 q-23 -49 -66.5 -80 q-43.5 -31 -104.5 -31 q-66 0 -117 33 q-51 33 -80 88 q-29 55 -29 122 q0 65 32 116 q32 51 91.5 80.5 q59.5 29.5 140.5 29.5 ZM293 557 q-22 0 -40 -11 q-18 -11 -28.5 -29.5 q-10.5 -18.5 -10.5 -41.5 q0 -23 10.5 -43 q10.5 -20 28.5 -31.5 q18 -11.5 40 -11.5 q23 0 41 11.5 q18 11.5 29 31.5 q11 20 11 43 q0 23 -11 41.5 q-11 18.5 -29 29.5 q-18 11 -41 11 Z" /><glyph glyph-name="fraction" unicode="&#x2044;" d="M-185 0 l481 700 l115 0 l-481 -700 l-115 0 Z" /><glyph glyph-name="space" unicode=" " d="" /><glyph glyph-name="uni00A0" unicode=" " d="" /><glyph glyph-name="CR" unicode="" d="" /><glyph glyph-name="period" unicode="." d="M143 -15 q-42 0 -72.5 30.5 q-30.5 30.5 -30.5 72.5 q0 42 30.5 72.5 q30.5 30.5 72.5 30.5 q42 0 72.5 -30.5 q30.5 -30.5 30.5 -72.5 q0 -42 -30.5 -72.5 q-30.5 -30.5 -72.5 -30.5 Z" /><glyph glyph-name="comma" unicode="," d="M18 -113 l66 259 l180 0 l-116 -259 l-130 0 Z" /><glyph glyph-name="colon" unicode=":" d="M173 294 q-42 0 -72.5 30.5 q-30.5 30.5 -30.5 72.5 q0 42 30.5 72.5 q30.5 30.5 72.5 30.5 q42 0 72.5 -30.5 q30.5 -30.5 30.5 -72.5 q0 -42 -30.5 -72.5 q-30.5 -30.5 -72.5 -30.5 ZM173 -1 q-42 0 -72.5 30.5 q-30.5 30.5 -30.5 72.5 q0 42 30.5 72.5 q30.5 30.5 72.5 30.5 q42 0 72.5 -30.5 q30.5 -30.5 30.5 -72.5 q0 -42 -30.5 -72.5 q-30.5 -30.5 -72.5 -30.5 Z" /><glyph glyph-name="semicolon" unicode=";" d="M174 290 q-42 0 -72.5 30.5 q-30.5 30.5 -30.5 72.5 q0 42 30.5 72.5 q30.5 30.5 72.5 30.5 q42 0 72.5 -30.5 q30.5 -30.5 30.5 -72.5 q0 -42 -30.5 -72.5 q-30.5 -30.5 -72.5 -30.5 ZM28 -113 l66 259 l180 0 l-116 -259 l-130 0 Z" /><glyph glyph-name="exclam" unicode="!" d="M78 251 l-15 449 l200 0 l-15 -449 l-170 0 ZM163 -16 q-42 0 -72.5 30.5 q-30.5 30.5 -30.5 72.5 q0 42 30.5 72.5 q30.5 30.5 72.5 30.5 q42 0 72.5 -30.5 q30.5 -30.5 30.5 -72.5 q0 -42 -30.5 -72.5 q-30.5 -30.5 -72.5 -30.5 Z" /><glyph glyph-name="exclamdown" unicode="¡" d="M248 245 l15 -449 l-200 0 l15 449 l170 0 ZM163 512 q42 0 72.5 -30.5 q30.5 -30.5 30.5 -72.5 q0 -42 -30.5 -72.5 q-30.5 -30.5 -72.5 -30.5 q-42 0 -72.5 30.5 q-30.5 30.5 -30.5 72.5 q0 42 30.5 72.5 q30.5 30.5 72.5 30.5 Z" /><glyph glyph-name="question" unicode="?" d="M151 213 l-7 174 l93 9 q40 5 65 23 q25 18 25 59 q0 32 -23 53 q-23 21 -60 21 q-25 0 -42.5 -13.5 q-17.5 -13.5 -25.5 -33.5 l-161 43 q20 76 80 120 q60 44 149 44 q74 0 131 -30 q57 -30 89.5 -82.5 q32.5 -52.5 32.5 -121.5 q0 -50 -21.5 -89.5 q-21.5 -39.5 -61 -65 q-39.5 -25.5 -92.5 -34.5 l-3 -76 l-168 0 ZM235 -15 q-42 0 -72.5 30.5 q-30.5 30.5 -30.5 72.5 q0 42 30.5 72.5 q30.5 30.5 72.5 30.5 q42 0 72.5 -30.5 q30.5 -30.5 30.5 -72.5 q0 -42 -30.5 -72.5 q-30.5 -30.5 -72.5 -30.5 Z" /><glyph glyph-name="questiondown" unicode="¿" d="M345 284 l7 -174 l-93 -9 q-40 -4 -65 -22.5 q-25 -18.5 -25 -59.5 q0 -32 23 -53 q23 -21 60 -21 q26 0 43.5 13.5 q17.5 13.5 24.5 33.5 l161 -43 q-19 -76 -79.5 -120 q-60.5 -44 -149.5 -44 q-74 0 -131 30 q-57 30 -89.5 83 q-32.5 53 -32.5 121 q0 51 21.5 90 q21.5 39 61 64.5 q39.5 25.5 92.5 34.5 l3 76 l168 0 ZM261 512 q42 0 72.5 -30.5 q30.5 -30.5 30.5 -72.5 q0 -42 -30.5 -72.5 q-30.5 -30.5 -72.5 -30.5 q-42 0 -72.5 30.5 q-30.5 30.5 -30.5 72.5 q0 42 30.5 72.5 q30.5 30.5 72.5 30.5 Z" /><glyph glyph-name="bullet" unicode="&#x2022;" d="M224 155 q-37 0 -67.5 18 q-30.5 18 -48.5 48 q-18 30 -18 67 q0 37 18 66.5 q18 29.5 48.5 47.5 q30.5 18 67.5 18 q38 0 68.5 -18 q30.5 -18 48.5 -47.5 q18 -29.5 18 -66.5 q0 -37 -18 -67 q-18 -30 -48.5 -48 q-30.5 -18 -68.5 -18 Z" /><glyph glyph-name="asterisk" unicode="*" d="M315 324 l-100 172 l64 47 l133 -148 l-97 -71 ZM180 323 l-97 70 l132 149 l65 -47 l-100 -172 ZM235 480 l-195 42 l37 114 l182 -80 l-24 -76 ZM207 518 l-20 198 l120 0 l-20 -198 l-80 0 ZM259 480 l-24 76 l182 80 l37 -114 l-195 -42 Z" /><glyph glyph-name="numbersign" unicode="#" d="M303 0 l110 700 l127 0 l-110 -700 l-127 0 ZM10 169 l18 126 l562 0 l-18 -126 l-562 0 ZM98 0 l110 700 l127 0 l-110 -700 l-127 0 ZM38 373 l23 127 l562 0 l-23 -127 l-562 0 Z" /><glyph glyph-name="slash" unicode="/" d="M15 -84 l276 831 l166 0 l-274 -831 l-168 0 Z" /><glyph glyph-name="backslash" unicode="\" d="M457 -84 l-168 0 l-274 831 l166 0 l276 -831 Z" /><glyph glyph-name="hyphen" unicode="-" d="M50 223 l0 150 l300 0 l0 -150 l-300 0 Z" /><glyph glyph-name="endash" unicode="&#x2013;" d="M0 223 l0 150 l550 0 l0 -150 l-550 0 Z" /><glyph glyph-name="emdash" unicode="&#x2014;" d="M0 223 l0 150 l1100 0 l0 -150 l-1100 0 Z" /><glyph glyph-name="underscore" unicode="_" d="M15 -150 l0 150 l400 0 l0 -150 l-400 0 Z" /><glyph glyph-name="parenleft" unicode="(" d="M206 -100 q-46 61 -84 132.5 q-38 71.5 -60 151.5 q-22 80 -22 166 q0 87 22 166.5 q22 79.5 60 151 q38 71.5 84 132.5 l174 0 q-46 -64 -84 -137 q-38 -73 -60 -151.5 q-22 -78.5 -22 -161.5 q0 -82 22 -161 q22 -79 60 -151.5 q38 -72.5 84 -137.5 l-174 0 Z" /><glyph glyph-name="parenright" unicode=")" d="M204 -100 l-174 0 q47 65 84.5 137.5 q37.5 72.5 59.5 151.5 q22 79 22 161 q0 83 -22 161.5 q-22 78.5 -59.5 151.5 q-37.5 73 -84.5 137 l174 0 q47 -61 84.5 -132.5 q37.5 -71.5 59.5 -151 q22 -79.5 22 -166.5 q0 -86 -22 -166 q-22 -80 -59.5 -151.5 q-37.5 -71.5 -84.5 -132.5 Z" /><glyph glyph-name="braceleft" unicode="{" d="M50 339 l0 76 q36 0 55.5 8 q19.5 8 27 29 q7.5 21 7.5 60 q0 86 9.5 142 q9.5 56 33 88 q23.5 32 64.5 45 q41 13 105 13 l0 -138 q-25 0 -38.5 -13 q-13.5 -13 -18.5 -45 q-5 -32 -5 -91 q0 -69 -20 -107 q-20 -38 -72 -52.5 q-52 -14.5 -148 -14.5 ZM352 -100 q-64 0 -105 13 q-41 13 -64.5 45 q-23.5 32 -33 88 q-9.5 56 -9.5 142 q0 39 -7.5 60 q-7.5 21 -27 29 q-19.5 8 -55.5 8 l0 76 q97 0 149 -14.5 q52 -14.5 72 -52 q20 -37.5 20 -107.5 q0 -59 5 -91 q5 -32 18.5 -44.5 q13.5 -12.5 37.5 -13.5 l0 -138 Z" /><glyph glyph-name="braceright" unicode="}" d="M352 339 q-96 0 -148 14.5 q-52 14.5 -72 52.5 q-20 38 -20 107 q0 59 -5 91 q-5 32 -18.5 45 q-13.5 13 -38.5 13 l0 138 q64 0 105 -13 q41 -13 64.5 -45 q23.5 -32 33 -88 q9.5 -56 9.5 -142 q0 -39 7.5 -60 q7.5 -21 27 -29 q19.5 -8 55.5 -8 l0 -76 ZM50 -100 l0 138 q25 1 38 13.5 q13 12.5 18 44.5 q5 32 5 91 q0 70 20 107.5 q20 37.5 72.5 52 q52.5 14.5 148.5 14.5 l0 -76 q-36 0 -55.5 -8 q-19.5 -8 -27 -29 q-7.5 -21 -7.5 -60 q0 -86 -9.5 -142 q-9.5 -56 -33 -88 q-23.5 -32 -64.5 -45 q-41 -13 -105 -13 Z" /><glyph glyph-name="bracketleft" unicode="[" d="M60 -100 l0 900 l262 0 l0 -160 l-112 0 l0 -580 l112 0 l0 -160 l-262 0 Z" /><glyph glyph-name="bracketright" unicode="]" d="M302 -100 l-262 0 l0 160 l112 0 l0 580 l-112 0 l0 160 l262 0 l0 -900 Z" /><glyph glyph-name="quotedblbase" unicode="&#x201e;" d="M239 -113 l66 259 l180 0 l-116 -259 l-130 0 ZM0 -113 l66 259 l180 0 l-116 -259 l-130 0 Z" /><glyph glyph-name="quotedblleft" unicode="&#x201c;" d="M246 704 l-66 -259 l-180 0 l116 259 l130 0 ZM485 704 l-66 -259 l-180 0 l116 259 l130 0 Z" /><glyph glyph-name="quotedblright" unicode="&#x201d;" d="M247 441 l66 259 l180 0 l-116 -259 l-130 0 ZM8 441 l66 259 l180 0 l-116 -259 l-130 0 Z" /><glyph glyph-name="quoteleft" unicode="&#x2018;" d="M246 700 l-66 -259 l-180 0 l116 259 l130 0 Z" /><glyph glyph-name="guillemotright" unicode="»" d="M246 96 l-201 0 l133 202 l-133 202 l201 0 l142 -202 l-142 -202 ZM519 96 l-201 0 l133 202 l-133 202 l201 0 l142 -202 l-142 -202 Z" /><glyph glyph-name="guilsinglleft" unicode="&#x2039;" d="M187 96 l-142 202 l142 202 l201 0 l-133 -202 l133 -202 l-201 0 Z" /><glyph glyph-name="guilsinglright" unicode="&#x203a;" d="M251 96 l-201 0 l133 202 l-133 202 l201 0 l142 -202 l-142 -202 Z" /><glyph glyph-name="quotesingle" unicode="&#39;" d="M80 440 l-20 276 l167 0 l-20 -276 l-127 0 Z" /><glyph glyph-name="at" unicode="@" d="M517 -208 q-108 0 -198 34 q-90 34 -156 95.5 q-66 61.5 -102 145.5 q-36 84 -36 185 q0 102 36 186.5 q36 84.5 102 146.5 q66 62 156 96 q90 34 198 34 q99 0 182 -34 q83 -34 143.5 -96 q60.5 -62 93.5 -146.5 q33 -84.5 33 -186.5 q0 -78 -28 -138 q-28 -60 -77 -94.5 q-49 -34.5 -113 -34.5 q-52 0 -93.5 25 q-41.5 25 -57.5 67 q-28 -30 -66.5 -46.5 q-38.5 -16.5 -83.5 -16.5 q-57 0 -101 30.5 q-44 30.5 -68.5 84.5 q-24.5 54 -24.5 123 q0 70 24.5 123 q24.5 53 68.5 83.5 q44 30.5 101 30.5 q39 0 73 -12 q34 -12 60 -34 l-1 36 l140 0 l0 -349 q0 -25 12 -32 q12 -7 31 -7 q25 0 43.5 20.5 q18.5 20.5 29.5 57 q11 36.5 11 83.5 q0 75 -24.5 138 q-24.5 63 -69 109 q-44.5 46 -105 71 q-60.5 25 -133.5 25 q-82 0 -150 -25 q-68 -25 -118 -71 q-50 -46 -77 -109 q-27 -63 -27 -138 q0 -75 27 -137 q27 -62 77 -107.5 q50 -45.5 118 -70.5 q68 -25 150 -25 q32 0 66.5 11 q34.5 11 56.5 28 l71 -97 q-42 -27 -96 -44.5 q-54 -17.5 -98 -17.5 ZM511 158 q32 0 53.5 23 q21.5 23 24.5 61 l-1 26 q-5 35 -28.5 56 q-23.5 21 -57.5 21 q-24 0 -42.5 -11.5 q-18.5 -11.5 -29 -32.5 q-10.5 -21 -10.5 -48 q0 -28 12 -49.5 q12 -21.5 32.5 -33.5 q20.5 -12 46.5 -12 Z" /><glyph glyph-name="ampersand" unicode="&amp;" d="M249 -12 q-64 0 -113.5 24.5 q-49.5 24.5 -77.5 67.5 q-28 43 -28 99 q0 31 11.5 60.5 q11.5 29.5 33 56 q21.5 26.5 50.5 46.5 l169 116 q7 5 20.5 14.5 q13.5 9.5 25.5 25.5 q12 16 12 37 q0 20 -16 30 q-16 10 -39 10 q-25 0 -40.5 -10.5 q-15.5 -10.5 -15.5 -29.5 q0 -22 14 -38 q14 -16 29 -36 l142 -171 l241 -290 l-202 0 l-158 188 l-158 192 q-32 41 -49 68.5 q-17 27.5 -23 48.5 q-6 21 -6 40 q0 51 29 90.5 q29 39.5 78 62 q49 22.5 109 22.5 q67 0 118.5 -23 q51.5 -23 80.5 -64 q29 -41 29 -95 q0 -42 -21 -77.5 q-21 -35.5 -65.5 -73.5 q-44.5 -38 -115.5 -87 l-69 -48 q-10 -7 -16.5 -17 q-6.5 -10 -10 -21 q-3.5 -11 -3.5 -22 q0 -21 13.5 -34.5 q13.5 -13.5 35.5 -13.5 q33 0 70 9 q37 9 69.5 28.5 q32.5 19.5 52.5 50 q20 30.5 20 73.5 l162 0 q0 -90 -49.5 -160 q-49.5 -70 -137 -109.5 q-87.5 -39.5 -201.5 -39.5 Z" /><glyph glyph-name="paragraph" unicode="¶" d="M275 210 q-79 0 -140 31.5 q-61 31.5 -95.5 87 q-34.5 55.5 -34.5 127.5 q0 72 34.5 127 q34.5 55 95.5 86 q61 31 140 31 l41 0 l0 -490 l-41 0 ZM282 -84 l0 784 l117 0 l0 -784 l-117 0 ZM444 -84 l0 784 l117 0 l0 -784 l-117 0 ZM388 530 l0 170 l67 0 l0 -170 l-67 0 Z" /><glyph glyph-name="section" unicode="§" d="M244 -91 q-53 0 -100 18 q-47 18 -77.5 48 q-30.5 30 -36.5 64 l127 39 q8 -24 30 -40 q22 -16 53 -17 q30 -1 51 13.5 q21 14.5 21 40.5 q0 19 -14.5 32.5 q-14.5 13.5 -41.5 20.5 l-79 21 q-61 17 -98 57.5 q-37 40.5 -37 101.5 q0 79 54 123.5 q54 44.5 149 44.5 q51 0 89.5 -14 q38.5 -14 66 -42.5 q27.5 -28.5 43.5 -70.5 l-123 -39 q-6 21 -25.5 37.5 q-19.5 16.5 -51.5 16.5 q-33 0 -51 -14 q-18 -14 -18 -42 q0 -18 14.5 -29 q14.5 -11 39.5 -18 l81 -22 q64 -17 100.5 -62 q36.5 -45 36.5 -102 q0 -78 -53 -122 q-53 -44 -150 -44 ZM247 145 q-49 0 -92.5 19 q-43.5 19 -71.5 49.5 q-28 30.5 -34 66.5 l111 33 q5 -15 21.5 -28 q16.5 -13 35 -20.5 q18.5 -7.5 27.5 -7.5 q29 0 50 14 q21 14 21 39 q0 20 -14.5 33.5 q-14.5 13.5 -41.5 20.5 l-79 21 q-61 17 -98 57.5 q-37 40.5 -37 101.5 q0 79 54 123.5 q54 44.5 149 44.5 q52 0 91.5 -14 q39.5 -14 67 -42 q27.5 -28 44.5 -70 l-127 -40 q-6 21 -25.5 37.5 q-19.5 16.5 -51.5 16.5 q-33 0 -51 -14 q-18 -14 -18 -42 q0 -18 15 -30.5 q15 -12.5 40 -18.5 l80 -20 q64 -16 100.5 -61.5 q36.5 -45.5 36.5 -103.5 q0 -77 -53 -121 q-53 -44 -150 -44 Z" /><glyph glyph-name="copyright" unicode="©" d="M387 -11 q-79 0 -145.5 26.5 q-66.5 26.5 -115 75 q-48.5 48.5 -75 114.5 q-26.5 66 -26.5 145 q0 80 26.5 146 q26.5 66 75 114.5 q48.5 48.5 115 75 q66.5 26.5 145.5 26.5 q79 0 145 -26.5 q66 -26.5 114.5 -75 q48.5 -48.5 75 -114.5 q26.5 -66 26.5 -146 q0 -79 -26.5 -145 q-26.5 -66 -75 -114.5 q-48.5 -48.5 -114.5 -75 q-66 -26.5 -145 -26.5 ZM388 152 q-58 0 -100 23.5 q-42 23.5 -64 68 q-22 44.5 -22 106.5 q0 62 22 106.5 q22 44.5 63.5 68 q41.5 23.5 99.5 23.5 q48 0 90 -25 q42 -25 68 -70 l12 -25 l-99 -37 l-12 17 q-13 14 -29 22 q-16 8 -30 8 q-34 0 -52.5 -23.5 q-18.5 -23.5 -18.5 -64.5 q0 -41 19 -64.5 q19 -23.5 53 -23.5 q16 0 32.5 11.5 q16.5 11.5 31.5 30.5 l6 10 l102 -36 l-9 -17 q-25 -52 -68 -80.5 q-43 -28.5 -95 -28.5 ZM387 99 q73 0 128.5 32 q55.5 32 87 89 q31.5 57 31.5 130 q0 74 -31.5 131 q-31.5 57 -87 89 q-55.5 32 -128.5 32 q-72 0 -128 -32 q-56 -32 -88 -89 q-32 -57 -32 -131 q0 -73 32 -130 q32 -57 88 -89 q56 -32 128 -32 Z" /><glyph glyph-name="registered" unicode="®" d="M304 144 q-59 0 -110.5 22 q-51.5 22 -90.5 61 q-39 39 -61 90.5 q-22 51.5 -22 110.5 q0 59 22 110.5 q22 51.5 61 90.5 q39 39 90.5 61 q51.5 22 110.5 22 q59 0 110.5 -22 q51.5 -22 90.5 -61 q39 -39 61 -90.5 q22 -51.5 22 -110.5 q0 -59 -22 -110.5 q-22 -51.5 -61 -90.5 q-39 -39 -90.5 -61 q-51.5 -22 -110.5 -22 ZM304 220 q62 0 108.5 26 q46.5 26 72 73 q25.5 47 25.5 109 q0 63 -25.5 109.5 q-25.5 46.5 -72 72.5 q-46.5 26 -108.5 26 q-62 0 -108.5 -26 q-46.5 -26 -72 -72.5 q-25.5 -46.5 -25.5 -109.5 q0 -62 25.5 -109 q25.5 -47 72 -73 q46.5 -26 108.5 -26 ZM195 292 l0 291 l121 1 q50 0 81 -28 q31 -28 31 -72 q0 -28 -14 -51 q-14 -23 -38 -35 l64 -106 l-88 0 l-53 92 l-27 0 l0 -92 l-77 0 ZM272 455 l40 0 q15 0 25 8 q10 8 10 21 q0 13 -10 21 q-10 8 -25 8 l-40 0 l0 -58 Z" /><glyph glyph-name="trademark" unicode="&#x2122;" d="M638 357 l-107 154 l0 -231 l-123 0 l0 420 l137 0 l93 -137 l92 137 l137 0 l0 -420 l-123 0 l0 231 l-106 -154 ZM127 280 l0 307 l-116 0 l0 113 l354 0 l0 -113 l-115 0 l0 -307 l-123 0 Z" /><glyph glyph-name="degree" unicode="°" d="M193 403 q-44 0 -81 21 q-37 21 -59.5 57 q-22.5 36 -22.5 80 q0 44 22.5 79 q22.5 35 60 55.5 q37.5 20.5 81.5 20.5 q43 0 80.5 -20.5 q37.5 -20.5 60 -55.5 q22.5 -35 22.5 -79 q0 -44 -22.5 -80 q-22.5 -36 -60 -57 q-37.5 -21 -81.5 -21 ZM193 513 q18 0 31 14.5 q13 14.5 13 33.5 q0 19 -13 32 q-13 13 -31 13 q-17 0 -30 -13 q-13 -13 -13 -32 q0 -19 13 -33.5 q13 -14.5 30 -14.5 Z" /><glyph glyph-name="bar" unicode="|" d="M60 -220 l0 1010 l135 0 l0 -1010 l-135 0 Z" /><glyph glyph-name="brokenbar" unicode="¦" d="M100 350 l0 440 l135 0 l0 -440 l-135 0 ZM100 -220 l0 440 l135 0 l0 -440 l-135 0 Z" /><glyph glyph-name="dagger" unicode="&#x2020;" d="M156 0 l45 429 l-35 271 l162 0 l-35 -271 l45 -429 l-182 0 ZM32 346 l0 166 l215 -35 l214 35 l0 -166 l-214 35 l-215 -35 Z" /><glyph glyph-name="daggerdbl" unicode="&#x2021;" d="M153 -200 l45 271 l-25 179 l25 179 l-35 271 l162 0 l-35 -271 l25 -179 l-25 -179 l45 -271 l-182 0 ZM35 -7 l0 156 l215 -30 l214 30 l0 -156 l-214 30 l-215 -30 ZM29 351 l0 156 l215 -30 l214 30 l0 -156 l-214 30 l-215 -30 Z" /><glyph glyph-name="cent" unicode="¢" d="M248 0 l0 700 l83 0 l0 -700 l-83 0 ZM302 98 q-82 0 -146 33.5 q-64 33.5 -100 93 q-36 59.5 -36 135.5 q0 77 36 136 q36 59 99 92.5 q63 33.5 145 33.5 q79 0 145 -41 q66 -41 94 -119 l-172 -56 q-8 20 -29.5 33 q-21.5 13 -47.5 13 q-25 0 -44 -11.5 q-19 -11.5 -30 -32.5 q-11 -21 -11 -48 q0 -27 11 -47.5 q11 -20.5 31 -32.5 q20 -12 45 -12 q25 0 46 13 q21 13 30 33 l172 -55 q-28 -78 -93.5 -119.5 q-65.5 -41.5 -144.5 -41.5 Z" /><glyph glyph-name="currency" unicode="¤" d="M321 131 q-67 0 -118.5 28 q-51.5 28 -80.5 77.5 q-29 49.5 -29 113.5 q0 64 29 113.5 q29 49.5 80 77.5 q51 28 117 28 q67 0 118 -28 q51 -28 80 -77.5 q29 -49.5 29 -113.5 q0 -64 -28.5 -113.5 q-28.5 -49.5 -79.5 -77.5 q-51 -28 -117 -28 ZM158 91 l-97 97 l144 145 l100 -95 l-147 -147 ZM320 281 q29 0 47.5 19.5 q18.5 19.5 18.5 49.5 q0 30 -19 49.5 q-19 19.5 -48 19.5 q-28 0 -47 -19.5 q-19 -19.5 -19 -49.5 q0 -30 19 -49.5 q19 -19.5 48 -19.5 ZM217 359 l-157 153 l97 97 l159 -155 l-99 -95 ZM481 91 l-149 147 l99 95 l147 -145 l-97 -97 ZM424 368 l-100 95 l157 146 l97 -97 l-154 -144 Z" /><glyph glyph-name="dollar" unicode="$" d="M277 24 q-59 0 -113 21 q-54 21 -90.5 56 q-36.5 35 -43.5 76 l166 46 q8 -22 27.5 -38 q19.5 -16 51.5 -18 q25 -1 44.5 13.5 q19.5 14.5 19.5 38.5 q0 15 -11.5 29 q-11.5 14 -35.5 20 l-95 24 q-49 13 -83.5 39 q-34.5 26 -52.5 64 q-18 38 -18 85 q0 92 61.5 144 q61.5 52 172.5 52 q59 0 104.5 -15 q45.5 -15 79 -48 q33.5 -33 54.5 -87 l-165 -47 q-4 17 -22.5 35.5 q-18.5 18.5 -50.5 18.5 q-30 0 -46.5 -13.5 q-16.5 -13.5 -16.5 -39.5 q0 -16 13.5 -28 q13.5 -12 38.5 -19 l95 -25 q72 -19 112.5 -70.5 q40.5 -51.5 40.5 -119.5 q0 -62 -28.5 -105.5 q-28.5 -43.5 -81.5 -66 q-53 -22.5 -127 -22.5 ZM208 -103 l0 883 l144 0 l0 -883 l-144 0 Z" /><glyph glyph-name="Euro" unicode="&#x20ac;" d="M414 -12 q-98 0 -173.5 46.5 q-75.5 46.5 -118 128 q-42.5 81.5 -42.5 187.5 q0 106 42.5 187.5 q42.5 81.5 118 128 q75.5 46.5 173.5 46.5 q72 0 130 -26.5 q58 -26.5 100 -74.5 q42 -48 64 -111 l-164 -56 q-12 30 -31 52 q-19 22 -43.5 34 q-24.5 12 -55.5 12 q-42 0 -74.5 -24.5 q-32.5 -24.5 -51 -67.5 q-18.5 -43 -18.5 -100 q0 -56 19 -99.5 q19 -43.5 52 -68 q33 -24.5 75 -24.5 q34 0 58 12.5 q24 12.5 41 34.5 q17 22 30 52 l165 -56 q-22 -63 -64 -111 q-42 -48 -100.5 -75 q-58.5 -27 -131.5 -27 ZM10 254 l0 82 l475 0 l0 -82 l-475 0 ZM10 364 l0 82 l475 0 l0 -82 l-475 0 Z" /><glyph glyph-name="uni20B9" unicode="&#x20b9;" d="M253 0 l-193 208 l0 125 l123 0 q24 0 42.5 11.5 q18.5 11.5 29.5 32.5 l-195 0 l0 128 l191 0 q-11 20 -28.5 31.5 q-17.5 11.5 -39.5 11.5 l-123 0 l0 152 l470 0 l0 -128 l-102 0 q9 -16 15.5 -32.5 q6.5 -16.5 10.5 -34.5 l76 0 l0 -128 l-73 0 q-8 -40 -29.5 -74.5 q-21.5 -34.5 -54 -60.5 q-32.5 -26 -73.5 -41 l-5 -2 l187 -199 l-229 0 Z" /><glyph glyph-name="sterling" unicode="£" d="M40 0 l0 170 l14 0 q21 0 36 17.5 q15 17.5 15 42.5 l0 42 l-65 0 l0 140 l65 0 l0 64 q0 81 30.5 133.5 q30.5 52.5 85 77.5 q54.5 25 127.5 25 q69 0 122 -23.5 q53 -23.5 83 -71.5 q30 -48 30 -124 l-180 11 q0 29 -17 42.5 q-17 13.5 -40 13.5 q-28 0 -44.5 -21 q-16.5 -21 -16.5 -63 l0 -64 l208 0 l0 -140 l-208 0 l0 -32 q0 -37 -27 -70 l325 0 l0 -170 l-543 0 Z" /><glyph glyph-name="yen" unicode="¥" d="M409 287 l-171 31 l193 382 l210 0 l-232 -413 ZM231 0 l0 336 l185 0 l0 -336 l-185 0 ZM85 164 l0 92 l475 0 l0 -92 l-475 0 ZM85 284 l0 92 l475 0 l0 -92 l-475 0 ZM237 287 l-232 413 l210 0 l193 -382 l-171 -31 Z" /><glyph glyph-name="uni2215" unicode="&#x2215;" d="M28 0 l481 700 l103 0 l-481 -700 l-103 0 Z" /><glyph glyph-name="plus" unicode="+" d="M250 63 l0 470 l140 0 l0 -470 l-140 0 ZM85 228 l0 140 l470 0 l0 -140 l-470 0 Z" /><glyph glyph-name="minus" unicode="&#x2212;" d="M125 226 l0 144 l390 0 l0 -144 l-390 0 Z" /><glyph glyph-name="multiply" unicode="×" d="M442 79 l-341 341 l97 97 l341 -341 l-97 -97 ZM198 79 l-97 97 l340 341 l97 -97 l-340 -341 Z" /><glyph glyph-name="divide" unicode="÷" d="M105 226 l0 144 l430 0 l0 -144 l-430 0 ZM320 50 q-29 0 -50.5 22 q-21.5 22 -21.5 51 q0 29 21.5 51 q21.5 22 50.5 22 q29 0 51 -22 q22 -22 22 -51 q0 -29 -22 -51 q-22 -22 -51 -22 ZM320 400 q-29 0 -51 21.5 q-22 21.5 -22 50.5 q0 29 22 51 q22 22 51 22 q29 0 50.5 -22 q21.5 -22 21.5 -51 q0 -29 -21.5 -50.5 q-21.5 -21.5 -50.5 -21.5 Z" /><glyph glyph-name="equal" unicode="=" d="M120 328 l0 139 l400 0 l0 -139 l-400 0 ZM120 128 l0 139 l400 0 l0 -139 l-400 0 Z" /><glyph glyph-name="notequal" unicode="&#x2260;" d="M120 74 l263 512 l132 0 l-263 -512 l-132 0 ZM120 361 l0 139 l400 0 l0 -139 l-400 0 ZM120 161 l0 139 l400 0 l0 -139 l-400 0 Z" /><glyph glyph-name="greater" unicode="&gt;" d="M120 60 l0 157 l222 82 l-222 80 l0 157 l401 -167 l0 -140 l-401 -169 Z" /><glyph glyph-name="less" unicode="&lt;" d="M520 536 l0 -157 l-222 -82 l222 -80 l0 -157 l-401 167 l0 140 l401 169 Z" /><glyph glyph-name="greaterequal" unicode="&#x2265;" d="M120 0 l0 120 l401 0 l0 -120 l-401 0 ZM120 143 l0 141 l222 74 l-222 72 l0 141 l401 -150 l0 -126 l-401 -152 Z" /><glyph glyph-name="lessequal" unicode="&#x2264;" d="M520 0 l-401 0 l0 120 l401 0 l0 -120 ZM520 143 l-401 152 l0 126 l401 150 l0 -141 l-222 -72 l222 -74 l0 -141 Z" /><glyph glyph-name="plusminus" unicode="±" d="M85 328 l0 130 l470 0 l0 -130 l-470 0 ZM85 30 l0 120 l470 0 l0 -120 l-470 0 ZM250 178 l0 430 l140 0 l0 -430 l-140 0 Z" /><glyph glyph-name="logicalnot" unicode="¬" d="M130 265 l0 144 l370 0 l0 -144 l-370 0 ZM356 135 l0 274 l144 0 l0 -274 l-144 0 Z" /><glyph glyph-name="asciitilde" unicode="~" d="M510 145 q-46 0 -82 15.5 q-36 15.5 -61 39.5 q-25 24 -41 50 q-13 21 -28.5 42 q-15.5 21 -44.5 21 q-30 0 -44.5 -19 q-14.5 -19 -18.5 -49 l-140 0 q0 72 26.5 126.5 q26.5 54.5 72 85.5 q45.5 31 100.5 31 q68 0 116.5 -21 q48.5 -21 76.5 -84 q10 -22 27.5 -42.5 q17.5 -20.5 39.5 -20.5 q25 0 41 17 q16 17 19 51 l140 0 q0 -71 -26.5 -126 q-26.5 -55 -71.5 -86 q-45 -31 -101 -31 Z" /><glyph glyph-name="asciicircum" unicode="^" d="M387 373 l-162 327 l157 0 l157 -327 l-152 0 ZM70 373 l155 327 l156 0 l-158 -327 l-153 0 Z" /><glyph glyph-name="uni00B5" unicode="µ" d="M281 -12 q-60 0 -94.5 55.5 q-34.5 55.5 -33.5 170.5 l67 30 q0 -28 6.5 -47 q6.5 -19 19 -29 q12.5 -10 31.5 -11 q38 -1 57 18 q19 19 19 59 l49 0 q0 -118 -30.5 -182 q-30.5 -64 -90.5 -64 ZM40 -200 l0 700 l180 0 l0 -401 l-20 0 l0 -299 l-160 0 ZM363 0 l-10 92 l0 408 l180 0 l0 -500 l-170 0 Z" /><glyph glyph-name="percent" unicode="%" d="M83 0 l497 700 l168 0 l-500 -700 l-165 0 ZM634 -15 q-49 0 -87.5 23 q-38.5 23 -60 64 q-21.5 41 -21.5 93 q0 53 21.5 93.5 q21.5 40.5 60 63.5 q38.5 23 88.5 23 q49 0 87 -23 q38 -23 59.5 -63.5 q21.5 -40.5 21.5 -93.5 q0 -52 -21.5 -93 q-21.5 -41 -59.5 -64 q-38 -23 -88 -23 ZM634 96 q24 0 38.5 20 q14.5 20 14.5 49 q0 29 -14.5 49 q-14.5 20 -38.5 20 q-24 0 -38.5 -20 q-14.5 -20 -14.5 -49 q0 -29 14.5 -49 q14.5 -20 38.5 -20 ZM204 356 q-49 0 -87.5 23 q-38.5 23 -60 64 q-21.5 41 -21.5 93 q0 53 21.5 93.5 q21.5 40.5 60 63.5 q38.5 23 88.5 23 q49 0 87 -23 q38 -23 59.5 -63.5 q21.5 -40.5 21.5 -93.5 q0 -52 -21.5 -93 q-21.5 -41 -59.5 -64 q-38 -23 -88 -23 ZM204 467 q24 0 38.5 20 q14.5 20 14.5 49 q0 29 -14.5 49 q-14.5 20 -38.5 20 q-24 0 -38.5 -20 q-14.5 -20 -14.5 -49 q0 -29 14.5 -49 q14.5 -20 38.5 -20 Z" /><glyph glyph-name="arrowup" unicode="&#x2191;" d="M465 576 l-269 -241 l-106 108 l295 269 l80 -136 ZM459 0 l-150 0 l0 619 l150 0 l0 -619 ZM674 437 l-107 -106 l-266 246 l84 135 l289 -275 Z" /><glyph glyph-name="uni2197" unicode="&#x2197;" d="M166 191 l-106 106 l389 389 l106 -106 l-389 -389 ZM168 554 l0 146 l400 0 l-37 -144 l-363 -2 ZM422 300 l2 363 l144 37 l0 -400 l-146 0 Z" /><glyph glyph-name="arrowright" unicode="&#x2192;" d="M567 217 l-241 269 l108 106 l269 -295 l-136 -80 ZM60 223 l0 150 l550 0 l0 -150 l-550 0 ZM428 8 l-106 107 l246 266 l135 -84 l-275 -289 Z" /><glyph glyph-name="uni2198" unicode="&#x2198;" d="M60 382 l106 106 l389 -389 l-106 -106 l-389 389 ZM423 380 l146 0 l0 -400 l-144 37 l-2 363 ZM169 126 l363 -2 l37 -144 l-400 0 l0 146 Z" /><glyph glyph-name="arrowdown" unicode="&#x2193;" d="M465 124 l-80 -136 l-295 269 l106 108 l269 -241 ZM459 700 l0 -619 l-150 0 l0 619 l150 0 ZM674 263 l-289 -275 l-84 135 l266 246 l107 -106 Z" /><glyph glyph-name="uni2199" unicode="&#x2199;" d="M462 509 l106 -106 l-389 -389 l-106 106 l389 389 ZM460 146 l0 -146 l-400 0 l37 144 l363 2 ZM206 400 l-2 -363 l-144 -37 l0 400 l146 0 Z" /><glyph glyph-name="arrowleft" unicode="&#x2190;" d="M191 217 l-136 80 l269 295 l108 -106 l-241 -269 ZM698 223 l-550 0 l0 150 l550 0 l0 -150 ZM330 8 l-275 289 l135 84 l246 -266 l-106 -107 Z" /><glyph glyph-name="uni2196" unicode="&#x2196;" d="M569 318 l-106 -106 l-389 389 l106 106 l389 -389 ZM206 320 l-146 0 l0 400 l144 -37 l2 -363 ZM460 574 l-363 2 l-37 144 l400 0 l0 -146 Z" /><glyph glyph-name="uni0308" unicode="&#x308;" d="M415 569 q-35 0 -61.5 26.5 q-26.5 26.5 -26.5 61.5 q0 35 26.5 61.5 q26.5 26.5 61.5 26.5 q35 0 61.5 -26.5 q26.5 -26.5 26.5 -61.5 q0 -35 -26.5 -61.5 q-26.5 -26.5 -61.5 -26.5 ZM145 569 q-36 0 -62 26 q-26 26 -26 62 q0 36 26 62 q26 26 62 26 q36 0 62 -26 q26 -26 26 -62 q0 -36 -26 -62 q-26 -26 -62 -26 Z" /><glyph glyph-name="uni0307" unicode="&#x307;" d="M100 548 q-40 0 -70 30 q-30 30 -30 70 q0 41 30 70.5 q30 29.5 70 29.5 q41 0 70.5 -29.5 q29.5 -29.5 29.5 -70.5 q0 -40 -29.5 -70 q-29.5 -30 -70.5 -30 Z" /><glyph glyph-name="gravecomb" unicode="&#x300;" d="M170 554 l-132 147 l190 0 l112 -147 l-170 0 Z" /><glyph glyph-name="acutecomb" unicode="&#x301;" d="M249 554 l110 146 l190 0 l-130 -146 l-170 0 Z" /><glyph glyph-name="uni030B" unicode="&#x30b;" d="M234 554 l100 146 l170 0 l-122 -146 l-148 0 ZM4 554 l96 146 l170 0 l-120 -146 l-146 0 Z" /><glyph glyph-name="uni0302" unicode="&#x302;" d="M285 565 l-147 134 l0 13 l170 0 l127 -147 l-150 0 ZM10 565 l127 147 l170 0 l0 -13 l-147 -134 l-150 0 Z" /><glyph glyph-name="uni030C" unicode="&#x30c;" d="M138 554 l0 5 l137 141 l150 0 l-127 -146 l-160 0 ZM127 554 l-127 146 l150 0 l137 -141 l0 -5 l-160 0 Z" /><glyph glyph-name="uni0306" unicode="&#x306;" d="M203 542 q-59 0 -105 20 q-46 20 -72 56 q-26 36 -26 82 l164 0 q0 -17 11 -28 q11 -11 28 -11 q17 0 27.5 11 q10.5 11 10.5 28 l164 0 q0 -46 -26 -82 q-26 -36 -71.5 -56 q-45.5 -20 -104.5 -20 Z" /><glyph glyph-name="uni030A" unicode="&#x30a;" d="M178 520 q-37 0 -68.5 17.5 q-31.5 17.5 -50.5 46.5 q-19 29 -19 65 q0 37 19 66 q19 29 50.5 46.5 q31.5 17.5 68.5 17.5 q37 0 68 -17.5 q31 -17.5 50 -46.5 q19 -29 19 -66 q0 -36 -19 -65 q-19 -29 -50 -46.5 q-31 -17.5 -68 -17.5 ZM178 616 q32 0 32 33 q0 34 -32 34 q-33 0 -33 -34 q0 -33 33 -33 Z" /><glyph glyph-name="tildecomb" unicode="&#x303;" d="M351 534 q-38 0 -58.5 11 q-20.5 11 -31.5 25 q-11 14 -21 25 q-10 11 -27 11 q-7 0 -16 -6.5 q-9 -6.5 -15 -32.5 l-111 0 q6 53 22.5 85 q16.5 32 45 46 q28.5 14 68.5 14 q41 0 63.5 -11 q22.5 -11 34.5 -25 q12 -14 21 -25 q9 -11 24 -11 q14 0 19 11.5 q5 11.5 7 27.5 l111 0 q-9 -70 -40.5 -107.5 q-31.5 -37.5 -95.5 -37.5 Z" /><glyph glyph-name="uni0304" unicode="&#x304;" d="M-20 549 l0 151 l340 0 l0 -151 l-340 0 Z" /><glyph glyph-name="uni0312" unicode="&#x312;" d="M246 713 l-66 -149 l-180 0 l116 149 l130 0 Z" /><glyph glyph-name="uni0326" unicode="&#x326;" d="M26 -200 l46 160 l168 0 l-84 -160 l-130 0 Z" /><glyph glyph-name="uni0327" unicode="&#x327;" d="M256 -210 q-24 0 -49.5 8.5 q-25.5 8.5 -46.5 22.5 l21 76 q14 -7 26.5 -10.5 q12.5 -3.5 20.5 -3.5 q17 0 27 5 q10 5 10 14 q0 14 -14.5 21.5 q-14.5 7.5 -40.5 7.5 l30 75 l97 0 l-15 -32 q34 -11 53 -33 q19 -22 19 -49 q0 -48 -36.5 -75 q-36.5 -27 -101.5 -27 Z" /><glyph glyph-name="uni0328" unicode="&#x328;" d="M176 -212 q-42 0 -77.5 14 q-35.5 14 -57 41.5 q-21.5 27.5 -21.5 68.5 q0 29 17 52.5 q17 23.5 40 35.5 l138 0 q-27 -17 -41.5 -37.5 q-14.5 -20.5 -14.5 -37.5 q0 -8 5 -14 q5 -6 13 -6 q8 0 14 2 q6 2 11 5 l52 -108 q-15 -9 -34 -12.5 q-19 -3.5 -44 -3.5 Z" /><glyph glyph-name="ring" unicode="&#x2da;" d="M332 520 q-37 0 -68.5 17.5 q-31.5 17.5 -50.5 46.5 q-19 29 -19 65 q0 37 19 66 q19 29 50.5 46.5 q31.5 17.5 68.5 17.5 q37 0 68 -17.5 q31 -17.5 50 -46.5 q19 -29 19 -66 q0 -36 -19 -65 q-19 -29 -50 -46.5 q-31 -17.5 -68 -17.5 ZM332 616 q32 0 32 33 q0 34 -32 34 q-33 0 -33 -34 q0 -33 33 -33 Z" /></font>
</defs>
</svg>
